<svg width="149" height="38" viewBox="0 0 149 38" fill="none" xmlns="http://www.w3.org/2000/svg"><g clip-path="url(#clip0_718_11)" fill="#fff"><path d="M53.561 24.695c.47.01.94-.035 1.4-.135.316-.068.615-.195.881-.372a1.23 1.23 0 00.462-.555 1.97 1.97 0 00.13-.72 1.62 1.62 0 00-.217-.81 1.689 1.689 0 00-.595-.605 11.883 11.883 0 00-2.799-1.2 22.144 22.144 0 01-1.749-.677 6.394 6.394 0 01-1.56-.968 4.531 4.531 0 01-1.148-1.4 4.275 4.275 0 01-.44-2.03 4.851 4.851 0 01.462-2.141 4.571 4.571 0 011.304-1.62 6.022 6.022 0 012.05-1.016 9.425 9.425 0 012.711-.358 11.172 11.172 0 015.248 1.187L58.55 14.32a11.253 11.253 0 00-1.651-.656c-.71-.204-1.45-.3-2.19-.285-.956 0-1.643.129-2.06.386a1.31 1.31 0 00-.48.504c-.11.206-.161.438-.147.67-.01.28.071.557.231.791.174.235.395.433.65.582.308.182.632.335.97.457.35.142.773.284 1.217.433a25.51 25.51 0 012.407.978c.626.286 1.2.666 1.703 1.126.449.426.794.942 1.011 1.512.244.676.363 1.389.35 2.104 0 1.6-.583 2.84-1.749 3.722-1.166.881-2.915 1.322-5.247 1.322a14.2 14.2 0 01-3.803-.474 9.755 9.755 0 01-2.137-.838l1.126-3.072c.627.327 1.289.586 1.973.775.925.242 1.88.355 2.837.338zm9.676-13.335l3.813-.592v3.836h4.583v3.068h-4.582v4.58a3.534 3.534 0 00.423 1.858c.28.463.85.676 1.703.676a7.525 7.525 0 001.267-.111 6.44 6.44 0 001.19-.311l.538 2.872a11.08 11.08 0 01-1.536.504 9.255 9.255 0 01-2.074.2 6.992 6.992 0 01-2.585-.41 4.034 4.034 0 01-1.638-1.143 4.15 4.15 0 01-.86-1.77 10.17 10.17 0 01-.242-2.3V11.36zm22.987 15.818c-.824.218-1.662.388-2.508.508a21.09 21.09 0 01-3.225.236 7.88 7.88 0 01-2.855-.446 4.357 4.357 0 01-1.805-1.248 4.842 4.842 0 01-.948-1.919 9.974 9.974 0 01-.28-2.452v-7.253h3.813v6.806c0 1.187.162 2.045.487 2.575.325.53.93.791 1.819.791.273 0 .563 0 .867-.034.305-.033.58-.054.822-.088v-10.05h3.813v12.574zm15.462.027c-.349.098-.734.193-1.178.284-.445.092-.91.17-1.4.234-.49.064-.98.122-1.483.162-.504.04-.987.061-1.448.061a8.71 8.71 0 01-2.97-.47 5.86 5.86 0 01-2.195-1.345 5.614 5.614 0 01-1.373-2.133 7.821 7.821 0 01-.476-2.811 9.339 9.339 0 01.41-2.859 6.19 6.19 0 011.178-2.165 4.987 4.987 0 011.882-1.353 6.486 6.486 0 012.547-.473c.478-.005.954.045 1.42.149.434.105.858.246 1.266.422v-5.9l3.817-.591.003 18.788zm-8.633-6.19c-.05.974.227 1.938.79 2.746.274.348.633.626 1.044.807a2.82 2.82 0 001.314.235c.35 0 .654 0 .945-.037.29-.037.528-.054.7-.088V17.97a3.416 3.416 0 00-.91-.379 4.69 4.69 0 00-1.165-.145c-1.812.004-2.718 1.194-2.718 3.569zm23.788-6.411a111.343 111.343 0 01-2.414 7.047 85.97 85.97 0 01-2.746 6.393c-.31.657-.67 1.29-1.078 1.895a5.928 5.928 0 01-1.178 1.288 4.17 4.17 0 01-1.449.741 6.8 6.8 0 01-1.885.237 7.842 7.842 0 01-1.651-.162 7.698 7.698 0 01-1.242-.359l.664-2.946c.342.118.693.21 1.05.274.321.05.647.074.972.074a2.172 2.172 0 001.575-.534c.411-.424.729-.925.934-1.472a70.887 70.887 0 01-2.61-5.558 67.153 67.153 0 01-2.449-6.918h4.044c.173.643.374 1.34.605 2.09.231.752.476 1.513.731 2.277.256.765.518 1.516.784 2.243.266.727.521 1.384.759 1.98a60.6 60.6 0 00.7-1.98c.245-.727.476-1.475.699-2.243.224-.768.452-1.525.669-2.276.216-.751.405-1.448.577-2.091h3.939zm9.445 13.366a9.214 9.214 0 01-3.225-.508 5.99 5.99 0 01-2.239-1.41 5.587 5.587 0 01-1.305-2.152 8.523 8.523 0 01-.423-2.76V10.487h4.009v10.331a5.674 5.674 0 00.241 1.77c.133.436.36.84.665 1.187.276.301.63.528 1.025.656.425.136.87.204 1.318.2.438.019.875-.048 1.284-.198a3.25 3.25 0 001.099-.672c.605-.575.909-1.56.909-2.943V10.487h3.988V21.14a8.452 8.452 0 01-.433 2.77 5.645 5.645 0 01-1.333 2.169 5.981 5.981 0 01-2.278 1.397 9.708 9.708 0 01-3.302.494zM149 21.116a9.266 9.266 0 01-.385 2.747 6.074 6.074 0 01-1.126 2.128 5.052 5.052 0 01-1.844 1.387 6.118 6.118 0 01-2.533.494 7.1 7.1 0 01-2.816-.569v4.902h-3.813V15.051c.35-.102.735-.197 1.176-.285.441-.088.909-.169 1.399-.236.49-.068.983-.119 1.487-.163.504-.044.983-.06 1.445-.06a8.548 8.548 0 012.97.483 5.913 5.913 0 012.198 1.357 5.656 5.656 0 011.373 2.144c.325.908.484 1.864.469 2.825zm-3.89.098a4.368 4.368 0 00-.794-2.737 2.748 2.748 0 00-1.047-.79 2.837 2.837 0 00-1.307-.225c-.35 0-.658 0-.948.038-.291.037-.529.05-.718.084v6.648c.29.17.605.296.934.372.38.1.772.15 1.165.149 1.81 0 2.715-1.18 2.715-3.539zM24.617 11.367a2.542 2.542 0 00-2.75.094c-.397.277-.7.662-.872 1.106a2.32 2.32 0 00-.09 1.387c.112.461.364.88.722 1.202a2.51 2.51 0 001.29.612c.484.076.98.012 1.426-.184a2.452 2.452 0 001.079-.92 2.318 2.318 0 00.305-1.81 2.359 2.359 0 00-.402-.85 2.448 2.448 0 00-.708-.637zm.136.94a1.776 1.776 0 00-1.287-.18c-.436.105-.813.37-1.05.74-.237.37-.315.816-.218 1.24.098.426.363.797.74 1.035h.02a1.937 1.937 0 01-.618-.234 1.793 1.793 0 01-.829-1.11 1.74 1.74 0 01.227-1.352 1.848 1.848 0 011.149-.801c.477-.11.98-.03 1.398.219.193.114.361.264.497.44l-.029.003z"/><path d="M29.822 11.076c0-2.744-1.157-6.022-1.157-6.022a22.899 22.899 0 00-6.042 1.661 13.497 13.497 0 00-5.832-.026 13.258 13.258 0 00-5.262 2.432 12.718 12.718 0 00-3.643 4.403 12.308 12.308 0 001.45 13.252c2.726-1.543 4.783-4.226 4.783-4.226a12.254 12.254 0 002.536 1.901s-.588 1.919-3.218 5.007c.178-.111 3.005-1.972 4.351-4.425.273.119.564.227.858.339 0 0-1.68 3.311-2.159 5.937 2.663.65 5.47.472 8.024-.508a12.98 12.98 0 006.197-4.953 12.32 12.32 0 002.026-7.525 12.403 12.403 0 00-2.912-7.247zm-1.661 3.991c-1.438 3.241-6.405 7.165-6.56 7.287l2.009-.819c1.815 1.08 1.749 2.24.7 3.989-1.718 2.645-6.063 4.662-6.063 4.662s2.732-3.596 2.994-4.652c.263-1.055-.895-1.884-1.07-2.03 0 0-.168.745-.277 1.123a10.936 10.936 0 01-2.952-1.275 9.812 9.812 0 01-2.494-1.99c.304-.263.92-.736.92-.736-.203-.092-1.48-.725-2.344-.028-.864.697-2.991 4.672-2.991 4.672s-.067-4.658 1.62-7.34c1.154-1.692 2.19-2.27 3.998-1.178l.133 2.104s1.434-6.194 3.848-8.924c2.295-2.605 7.787-3.606 8.28-3.69.123.476 1.641 5.68.249 8.825z"/><path d="M19.65 0a20.24 20.24 0 00-7.6 1.373 19.722 19.722 0 00-6.464 4.101A18.982 18.982 0 001.26 11.67 18.46 18.46 0 00-.262 19c0 2.517.517 5.008 1.52 7.33a18.98 18.98 0 004.328 6.196 19.72 19.72 0 006.464 4.101A20.242 20.242 0 0019.65 38c.584 0 1.165-.027 1.749-.075a13.71 13.71 0 011.15-3.457c-.953.168-1.92.252-2.889.25a16.72 16.72 0 01-6.957-1.51 16.19 16.19 0 01-5.619-4.244 15.53 15.53 0 01-3.2-6.16 15.216 15.216 0 01-.167-6.894 15.473 15.473 0 012.9-6.299 16.118 16.118 0 015.407-4.493 16.75 16.75 0 0113.898-.626 22.403 22.403 0 012.617-.487l.87-.098.288.802c.024.078.388 1.113.7 2.51a15.754 15.754 0 014.125 5.462 15.27 15.27 0 011.37 6.633 15.298 15.298 0 01-1.64 6.576 15.816 15.816 0 01-4.346 5.3c-1.787 1.475-3.848 3.654-4.547 5.995 4.509-1.323 8.376-4.17 10.896-8.02 2.52-3.85 3.527-8.447 2.835-12.954-.692-4.507-3.036-8.624-6.605-11.6C28.917 1.636 24.362 0 19.65 0z"/></g><defs><clipPath id="clip0_718_11"><path fill="#fff" d="M0 0h149v38H0z"/></clipPath></defs></svg>