<svg width="54" height="54" viewBox="0 0 54 54" fill="none" xmlns="http://www.w3.org/2000/svg"><circle opacity=".3" cx="27" cy="27" r="27" fill="#fff"/><path d="M42.78 11L29.322 21.01l2.503-5.907L42.779 11z" fill="#E17726" stroke="#E17726" stroke-width=".542" stroke-linecap="round" stroke-linejoin="round"/><path d="M11.682 11l13.374 10.092-2.38-5.99L11.683 11zm26.256 23.18l-3.61 5.497 7.713 2.133 2.174-7.507-6.277-.123zm-27.651.123l2.174 7.507 7.672-2.133-3.569-5.498-6.277.124z" fill="#E27625" stroke="#E27625" stroke-width=".542" stroke-linecap="round" stroke-linejoin="round"/><path d="M19.723 24.908l-2.133 3.24 7.59.329-.247-8.205-5.21 4.636zm15.057 0l-5.293-4.718-.164 8.287 7.59-.328-2.133-3.241zM20.133 39.677l4.595-2.215-3.98-3.118-.615 5.333zm9.641-2.215l4.554 2.215-.615-5.333-3.939 3.117z" fill="#E27625" stroke="#E27625" stroke-width=".542" stroke-linecap="round" stroke-linejoin="round"/><path d="M34.328 39.677l-4.554-2.215.37 2.953-.041 1.272 4.225-2.01zm-14.195 0l4.267 2.01-.041-1.272.37-2.953-4.596 2.215z" fill="#D5BFB2" stroke="#D5BFB2" stroke-width=".542" stroke-linecap="round" stroke-linejoin="round"/><path d="M24.482 32.374l-3.815-1.107 2.666-1.231 1.149 2.338zm5.538 0l1.108-2.338 2.708 1.23-3.816 1.108z" fill="#233447" stroke="#233447" stroke-width=".542" stroke-linecap="round" stroke-linejoin="round"/><path d="M20.133 39.677l.657-5.498-4.226.124 3.57 5.374zm13.58-5.497l.615 5.497 3.61-5.374-4.225-.123zm3.2-6.031l-7.59.328.697 3.897 1.108-2.338 2.708 1.23 3.077-3.117zm-16.246 3.118l2.666-1.231 1.149 2.338.697-3.897-7.59-.328 3.078 3.118z" fill="#CC6228" stroke="#CC6228" stroke-width=".542" stroke-linecap="round" stroke-linejoin="round"/><path d="M17.59 28.149l3.159 6.195-.082-3.077-3.077-3.118zm16.246 3.118l-.123 3.077 3.2-6.195-3.077 3.118zm-8.656-2.79l-.698 3.897.862 4.636.205-6.113-.37-2.42zm4.143 0l-.37 2.42.165 6.113.903-4.636-.698-3.897z" fill="#E27525" stroke="#E27525" stroke-width=".542" stroke-linecap="round" stroke-linejoin="round"/><path d="M30.02 32.374l-.902 4.636.656.452 3.939-3.118.123-3.077-3.816 1.107zm-9.353-1.107l.082 3.077 3.98 3.117.615-.45-.862-4.637-3.815-1.107z" fill="#F5841F" stroke="#F5841F" stroke-width=".542" stroke-linecap="round" stroke-linejoin="round"/><path d="M30.103 41.687l.04-1.272-.369-.287h-5.087l-.328.287.041 1.272-4.267-2.01 1.477 1.23L24.646 43h5.17l3.035-2.092 1.477-1.231-4.225 2.01z" fill="#C0AC9D" stroke="#C0AC9D" stroke-width=".542" stroke-linecap="round" stroke-linejoin="round"/><path d="M29.774 37.462l-.656-.452h-3.774l-.616.452-.369 2.953.328-.287h5.087l.37.287-.37-2.953z" fill="#161616" stroke="#161616" stroke-width=".542" stroke-linecap="round" stroke-linejoin="round"/><path d="M43.354 21.667l1.149-5.539L42.779 11l-13.005 9.682 5.005 4.226 7.057 2.051 1.559-1.805-.657-.492 1.067-.985-.82-.657 1.066-.82-.697-.533zM10 16.128l1.149 5.539-.739.533 1.067.82-.82.657 1.107.985-.697.492 1.559 1.805 7.097-2.051 5.005-4.226L11.682 11 10 16.128z" fill="#763E1A" stroke="#763E1A" stroke-width=".542" stroke-linecap="round" stroke-linejoin="round"/><path d="M41.836 26.959l-7.056-2.051 2.133 3.24-3.2 6.196 4.225-.041h6.277l-2.38-7.344zm-22.113-2.051l-7.097 2.051-2.339 7.344h6.277l4.185.04-3.16-6.194 2.134-3.241zm9.6 3.569l.451-7.795 2.052-5.58h-9.15l2.052 5.58.451 7.795.165 2.461v6.072h3.774v-6.072l.205-2.461z" fill="#F5841F" stroke="#F5841F" stroke-width=".542" stroke-linecap="round" stroke-linejoin="round"/></svg>