<svg width="557" height="173" viewBox="0 0 557 173" fill="none" xmlns="http://www.w3.org/2000/svg"><mask id="a" style="mask-type:alpha" maskUnits="userSpaceOnUse" x="4" y="38" width="549" height="84"><path d="M60.922 95.719c0 4.958-1.258 9.37-3.774 13.234-2.515 3.828-6.143 6.818-10.882 8.969-4.74 2.114-10.3 3.172-16.68 3.172-5.323 0-9.79-.365-13.398-1.094-3.61-.766-7.365-2.078-11.266-3.938v-19.25a65.545 65.545 0 0012.851 4.977c4.448 1.167 8.532 1.75 12.25 1.75 3.209 0 5.56-.547 7.055-1.641 1.495-1.13 2.242-2.57 2.242-4.32 0-1.094-.31-2.041-.93-2.844-.583-.838-1.549-1.677-2.898-2.515-1.312-.839-4.849-2.552-10.61-5.14-5.213-2.37-9.132-4.667-11.757-6.891-2.588-2.225-4.52-4.776-5.797-7.657-1.24-2.88-1.86-6.289-1.86-10.226 0-7.365 2.68-13.107 8.04-17.227 5.36-4.12 12.724-6.18 22.094-6.18 8.276 0 16.716 1.914 25.32 5.743l-6.617 16.68c-7.474-3.428-13.927-5.141-19.36-5.141-2.807 0-4.849.492-6.125 1.476-1.276.985-1.914 2.206-1.914 3.664 0 1.568.802 2.972 2.407 4.211 1.64 1.24 6.052 3.5 13.234 6.781 6.89 3.1 11.667 6.435 14.328 10.008 2.698 3.537 4.047 8.003 4.047 13.399zM108.555 120H86.953V57.71H67.43V40.048h60.593V57.71h-19.468V120zm98.875-79.953v48.125c0 10.463-2.972 18.575-8.914 24.336-5.907 5.724-14.438 8.586-25.594 8.586-10.901 0-19.287-2.789-25.156-8.367-5.834-5.579-8.75-13.6-8.75-24.063V40.047h21.711v46.922c0 5.65 1.057 9.752 3.171 12.304 2.115 2.553 5.232 3.829 9.352 3.829 4.411 0 7.602-1.258 9.57-3.774 2.006-2.552 3.008-6.708 3.008-12.469V40.047h21.602zm84.656 38.281c0 13.344-3.682 23.625-11.047 30.844-7.328 7.219-17.646 10.828-30.953 10.828h-25.867V40.047h27.672c12.833 0 22.731 3.281 29.695 9.844 7 6.562 10.5 16.041 10.5 28.437zm-22.422.766c0-7.328-1.458-12.76-4.375-16.297-2.88-3.537-7.273-5.305-13.18-5.305h-6.289v44.789h4.813c6.562 0 11.375-1.896 14.437-5.687 3.063-3.828 4.594-9.662 4.594-17.5zm65.352-9.406l13.781-29.641h23.406l-26.305 48.726V120h-21.765V89.43l-26.305-49.383h23.516l13.672 29.64zm142.898-29.641v48.125c0 10.463-2.971 18.575-8.914 24.336-5.906 5.724-14.438 8.586-25.594 8.586-10.901 0-19.286-2.789-25.156-8.367-5.833-5.579-8.75-13.6-8.75-24.063V40.047h21.711v46.922c0 5.65 1.057 9.752 3.172 12.304 2.114 2.553 5.232 3.829 9.351 3.829 4.412 0 7.602-1.258 9.571-3.774 2.005-2.552 3.007-6.708 3.007-12.469V40.047h21.602zm74.813 25.43c0 8.932-2.644 15.84-7.93 20.726-5.25 4.85-12.724 7.274-22.422 7.274h-6.07V120h-21.602V40.047h27.672c10.099 0 17.682 2.206 22.75 6.617 5.068 4.411 7.602 10.682 7.602 18.813zm-36.422 10.39h3.937c3.245 0 5.815-.911 7.711-2.734 1.932-1.823 2.899-4.339 2.899-7.547 0-5.396-2.99-8.094-8.969-8.094h-5.578v18.375z" fill="#17152E"/></mask><g clip-path="url(#clip0_7_273)" mask="url(#a)"><path d="M608.422 15.754H-75.401v456.064h683.823V15.754z" fill="url(#paint0_radial_7_273)"/><path style="mix-blend-mode:color-dodge" d="M276.057 985.912c374.659 0 678.38-206.539 678.38-461.318S650.716 63.276 276.057 63.276c-374.66 0-678.38 206.539-678.38 461.318s303.72 461.318 678.38 461.318z" fill="url(#paint1_radial_7_273)"/><path d="M457.771 58.15a.621.621 0 00.83.83.53.53 0 00.264-.265.614.614 0 00-.118-.712.617.617 0 00-.711-.118.576.576 0 00-.265.265zm-19.165 11.666a.622.622 0 00.83.83.53.53 0 00.264-.265.62.62 0 10-1.094-.566zm-3.018-13.053a.622.622 0 00.83.83.574.574 0 00.264-.264.621.621 0 00-.829-.83.571.571 0 00-.265.264zm-98.47 28.504a.607.607 0 00.112.716.61.61 0 00.717.105.518.518 0 00.265-.255.621.621 0 00-.83-.83.498.498 0 00-.264.264zm55.517 25.531a.622.622 0 00.989.724.62.62 0 00-.725-.989.528.528 0 00-.264.265zm138.406 1.605a.622.622 0 00.83.83.528.528 0 00.264-.265.62.62 0 00-1.094-.565zM229.42 67.417a.614.614 0 00.112.716.614.614 0 00.718.105.52.52 0 00.264-.256.621.621 0 00-.83-.83.53.53 0 00-.264.265zm-105.437-7.635a.622.622 0 00.455.885.62.62 0 00.375-.055.528.528 0 00.265-.264.621.621 0 00-.83-.83.58.58 0 00-.265.264zM60.05 78.627a.611.611 0 00.821.83.474.474 0 00.265-.265.621.621 0 00-.83-.83.557.557 0 00-.255.265zm1.715 28.531a.62.62 0 10.264-.264.53.53 0 00-.264.264zm-19.029-1.313a.62.62 0 00.83.83.503.503 0 00.264-.265.611.611 0 00.087-.5.623.623 0 00-.567-.466.623.623 0 00-.614.401zm.988-7.001c.224-.225.21-.603-.033-.845-.242-.242-.62-.257-.844-.032-.224.224-.21.602.032.844.242.243.62.257.845.033zM32.37 55.222a.62.62 0 10.264-.265.501.501 0 00-.265.265zM8.5 46.93a.62.62 0 10.264-.264.501.501 0 00-.265.264zm69.512 7.124a.62.62 0 00.83.83.52.52 0 00.255-.264.612.612 0 00-.82-.83.502.502 0 00-.265.264zm43.674 19.474a.621.621 0 00.83.83.53.53 0 00.264-.264.621.621 0 00-.83-.83.574.574 0 00-.264.264zm74.71-17.54a.614.614 0 00.112.716.614.614 0 00.718.105.559.559 0 00.264-.256.621.621 0 00-.83-.83.501.501 0 00-.264.265zm51.788-11.21a.607.607 0 00.113.716.608.608 0 00.717.105.52.52 0 00.264-.256.622.622 0 00-.83-.83.505.505 0 00-.264.265zm26.022-.803a.614.614 0 00.112.716.614.614 0 00.718.105.506.506 0 00.255-.255.613.613 0 00-.821-.83.475.475 0 00-.264.264zm41.485 21.344a.621.621 0 00.83.83.53.53 0 00.264-.265.62.62 0 10-1.094-.565zm-30.079 37.634a.622.622 0 00.83.83.558.558 0 00.255-.264.614.614 0 00-.821-.83.469.469 0 00-.264.264zm4.55 4.524a.624.624 0 00.455.886.62.62 0 00.374-.056.57.57 0 00.265-.264.622.622 0 00-.83-.83.53.53 0 00-.264.264zm85.724-3.311a.623.623 0 00.455.885.612.612 0 00.374-.055.528.528 0 00.265-.264.622.622 0 00-.83-.83.573.573 0 00-.264.264zm20.496 9.751a.622.622 0 00.83.83.573.573 0 00.264-.264.616.616 0 00-.118-.712.62.62 0 00-.711-.118.58.58 0 00-.265.264zm-73.853-8.638a.62.62 0 10.265-.264.5.5 0 00-.265.264zm-64.015-3.356a.62.62 0 00.83.83.58.58 0 00.264-.265.62.62 0 00-.829-.83.527.527 0 00-.265.265zm204.026-33.22a.622.622 0 00.83.83.53.53 0 00.264-.265.62.62 0 10-1.094-.565zM433.5 83.36a.622.622 0 00.455.886.62.62 0 00.375-.055.574.574 0 00.264-.265.615.615 0 00-.118-.712.617.617 0 00-.711-.118.528.528 0 00-.265.265zm46.555 37.535a.622.622 0 00.83.83.528.528 0 00.264-.265.62.62 0 00-1.094-.565zm20.168-45.816a.621.621 0 00.83.83.52.52 0 00.255-.265.622.622 0 00-.83-.83.521.521 0 00-.255.265zm-28.055 40.799a.622.622 0 00.83.83.573.573 0 00.264-.264.624.624 0 00-.118-.712.612.612 0 00-.337-.173.612.612 0 00-.374.055.528.528 0 00-.265.264zm-16.521-1.058a.622.622 0 00.83.83.52.52 0 00.255-.264.614.614 0 00-.821-.83.498.498 0 00-.264.264zm56.821-53.314a.614.614 0 00.45.9.61.61 0 00.38-.07.5.5 0 00.255-.255.606.606 0 00-.104-.718.612.612 0 00-.716-.112.482.482 0 00-.265.255zm-3.027 15.488a.621.621 0 00.83.83.574.574 0 00.264-.264.622.622 0 00-.83-.83.574.574 0 00-.264.264zm14.761 41.037a.622.622 0 00.83.83.527.527 0 00.265-.265.622.622 0 00-.83-.83.577.577 0 00-.265.265zm9.583-10.298a.622.622 0 00.83.83.528.528 0 00.264-.265.62.62 0 00-1.094-.565zm-33.042-65.181a.622.622 0 00.455.885.622.622 0 00.375-.055.574.574 0 00.264-.264.622.622 0 00-.455-.886.62.62 0 00-.375.056.574.574 0 00-.264.264zm32.523 37.151a.607.607 0 00.112.716.61.61 0 00.717.105.518.518 0 00.265-.255.622.622 0 00-.83-.83.53.53 0 00-.264.264zm-54.679-14.74a.621.621 0 00.83.83.574.574 0 00.264-.264.622.622 0 00-.455-.885.622.622 0 00-.375.054.573.573 0 00-.264.265zM379.56 43.364a.62.62 0 10.265-.265.527.527 0 00-.265.265zm6.793 14.922a.622.622 0 00.83.83.574.574 0 00.264-.264.621.621 0 00-.83-.83.53.53 0 00-.264.264zm-18.755 45.379a.622.622 0 00.989.724.62.62 0 00-.725-.989.528.528 0 00-.264.265zm18.81-18.106a.623.623 0 00.597.904.62.62 0 10-.333-1.169.498.498 0 00-.264.265zm-19.767-17.714a.615.615 0 00.455.885.618.618 0 00.374-.055.528.528 0 00.265-.264.622.622 0 00-.83-.83.574.574 0 00-.264.264zm-96.082-21.581a.621.621 0 00.829.83.528.528 0 00.265-.264.62.62 0 00-1.094-.566zm48.743 26.826a.615.615 0 00.455.885.617.617 0 00.374-.055.503.503 0 00.265-.264.62.62 0 00-1.094-.566zm-93.775 16.263a.621.621 0 00.829.83.528.528 0 00.265-.264.62.62 0 00-1.094-.566zm-78.056 22.785a.616.616 0 00.118.712.62.62 0 00.711.119.505.505 0 00.265-.265.622.622 0 00-.83-.83.573.573 0 00-.264.264zm51.259-67.132a.621.621 0 00.83.83.574.574 0 00.264-.265.622.622 0 00-.83-.83.574.574 0 00-.264.265zm-39.045 44.602c.225-.225.21-.603-.032-.845s-.62-.257-.844-.032c-.225.224-.21.602.032.844.242.243.62.257.844.033zm8.875 11.056a.622.622 0 00.455.885.62.62 0 00.374-.055.572.572 0 00.265-.265.622.622 0 00-.83-.83.575.575 0 00-.264.265zm14.333 14.676a.609.609 0 00.453.886.612.612 0 00.376-.065.558.558 0 00.265-.256.62.62 0 00-.83-.83.5.5 0 00-.264.265zm12.463-37.26a.621.621 0 00.83.83.574.574 0 00.264-.265.615.615 0 00-.455-.885.617.617 0 00-.374.055.58.58 0 00-.265.264zM84.64 50.789a.62.62 0 00.83.83.575.575 0 00.265-.265.62.62 0 00-.83-.83.529.529 0 00-.264.265zm2.873 4.113a.612.612 0 00.82.83.475.475 0 00.265-.264.612.612 0 00-.83-.821.501.501 0 00-.255.255zm-42.671 58.805a.62.62 0 00.83.83.573.573 0 00.264-.264.62.62 0 00-.83-.83.574.574 0 00-.264.264zm47.494 2.536a.612.612 0 00.82.83.528.528 0 00.265-.265.618.618 0 00-.455-.885.621.621 0 00-.375.055.525.525 0 00-.255.265zm2.27-28.09c.224-.225.21-.603-.032-.845s-.62-.257-.845-.033c-.224.225-.21.603.032.846.242.242.62.256.845.032zm-65.081 26.111a.618.618 0 00.455.885.621.621 0 00.374-.055.528.528 0 00.265-.265.62.62 0 00-.83-.83.57.57 0 00-.264.265zM9.43 73.108a.62.62 0 00.83.83.53.53 0 00.264-.264.62.62 0 00-.83-.83.575.575 0 00-.265.264z" fill="#fff"/><path d="M75.924 58.15a.62.62 0 01-.83.83.529.529 0 01-.264-.265.62.62 0 01.83-.83c.115.056.208.15.264.265zM95.09 69.816a.62.62 0 01-.83.83.53.53 0 01-.264-.265.62.62 0 01.83-.83c.114.056.207.15.264.265zm3.063-13.053a.62.62 0 01-.83.83.575.575 0 01-.264-.264.62.62 0 01.83-.83.529.529 0 01.264.264zm98.443 28.504a.614.614 0 01-.112.716.614.614 0 01-.718.105.559.559 0 01-.264-.255.621.621 0 01.83-.83c.119.05.213.145.264.264zm-55.508 25.531a.622.622 0 01-.989.724.62.62 0 01.725-.989.528.528 0 01.264.265zm163.206-43.381a.607.607 0 01-.113.716.608.608 0 01-.717.105.52.52 0 01-.264-.256.621.621 0 01.83-.83.53.53 0 01.264.265zm105.418-7.635a.622.622 0 01-.455.885.618.618 0 01-.374-.055.571.571 0 01-.265-.264.622.622 0 01.455-.885.62.62 0 01.375.055.573.573 0 01.264.264zm63.942 18.845a.615.615 0 01-.455.885.618.618 0 01-.374-.055.503.503 0 01-.265-.265.62.62 0 111.094-.565zm-1.759 28.531a.622.622 0 01-.83.83.55.55 0 01-.255-.264.606.606 0 01.104-.718.61.61 0 01.716-.112.5.5 0 01.265.264zm19.065-1.313a.622.622 0 01-.83.83.528.528 0 01-.264-.265.62.62 0 011.094-.565zm-.144-7.038c.242-.243.257-.62.033-.845-.225-.225-.603-.21-.845.032s-.257.62-.032.845c.224.224.602.21.844-.032zm10.373-42.928c.242-.242.256-.62.032-.845-.224-.224-.602-.21-.845.032-.242.242-.256.62-.032.845.225.224.603.21.845-.032zm24.007-8.949a.615.615 0 01-.455.885.618.618 0 01-.374-.055.557.557 0 01-.256-.264.613.613 0 01.821-.83.465.465 0 01.264.264zm-69.504 7.124a.622.622 0 01-.118.712.618.618 0 01-.711.118.503.503 0 01-.265-.264.621.621 0 01.83-.83.573.573 0 01.264.264zM412.01 73.528a.621.621 0 01-.83.83.53.53 0 01-.264-.264.615.615 0 01.455-.885.618.618 0 01.374.055.528.528 0 01.265.264zm-74.71-17.54a.614.614 0 01-.454.886.611.611 0 01-.376-.065.5.5 0 01-.255-.256.606.606 0 01.104-.717.613.613 0 01.716-.113.48.48 0 01.265.265zm-51.788-11.21a.614.614 0 01-.454.886.612.612 0 01-.376-.065.557.557 0 01-.265-.256.622.622 0 01.83-.83.505.505 0 01.265.265zm-25.977-.803a.607.607 0 01-.112.716.61.61 0 01-.717.105.482.482 0 01-.265-.255.614.614 0 01.45-.9.61.61 0 01.38.07.53.53 0 01.264.264zm-41.53 21.344a.623.623 0 01-.83.83.527.527 0 01-.265-.265.621.621 0 01.83-.83.58.58 0 01.265.265zm30.079 37.634a.613.613 0 01-.821.83.53.53 0 01-.264-.264.609.609 0 01.449-.9.606.606 0 01.38.07.483.483 0 01.256.264zm-4.55 4.524a.624.624 0 01-.455.886.622.622 0 01-.375-.056.573.573 0 01-.264-.264.622.622 0 01.83-.83.505.505 0 01.264.264zm-85.724-3.311a.623.623 0 01-.455.885.614.614 0 01-.375-.055.573.573 0 01-.264-.264.616.616 0 01.455-.885.62.62 0 01.374.055.57.57 0 01.265.264zm-20.451 9.751a.614.614 0 01-.821.83.501.501 0 01-.264-.264.624.624 0 01.455-.886.622.622 0 01.375.056.554.554 0 01.255.264zm73.807-8.638a.606.606 0 01-.104.718.611.611 0 01-.716.112.528.528 0 01-.265-.264.622.622 0 01.83-.83.52.52 0 01.255.264zm64.015-3.356a.62.62 0 01-.829.83.577.577 0 01-.265-.265.622.622 0 01.83-.83.528.528 0 01.264.265zM71.156 68.703a.62.62 0 01-.83.83.574.574 0 01-.264-.265.62.62 0 01.83-.83c.115.056.208.15.264.265zm29.04 14.657a.621.621 0 01-.83.83.52.52 0 01-.255-.264.61.61 0 01.82-.83c.119.05.214.146.265.265zm-46.7 38.26c.242-.242.256-.62.032-.845-.224-.224-.602-.21-.844.033-.243.242-.257.62-.033.845.225.224.603.21.845-.033zM33.5 75.079a.62.62 0 01-.83.83.529.529 0 01-.264-.265.62.62 0 01.83-.83c.115.056.208.15.264.265zm28.037 40.799a.62.62 0 01-.83.83.501.501 0 01-.264-.264.62.62 0 011.094-.566zm16.539-1.058a.62.62 0 01-.83.83.505.505 0 01-.264-.264.623.623 0 01.455-.886.621.621 0 01.375.055.58.58 0 01.264.265zM21.237 61.506a.62.62 0 01-.83.83.483.483 0 01-.264-.255.611.611 0 01.83-.83.556.556 0 01.264.255zm3.054 15.488a.62.62 0 01-.83.83.574.574 0 01-.264-.264.621.621 0 01.83-.83.53.53 0 01.264.264zM9.493 118.031a.62.62 0 01-.83.83.528.528 0 01-.264-.265.62.62 0 01.83-.83.571.571 0 01.264.265zm23.46-75.479a.62.62 0 11-.265-.264.529.529 0 01.265.264zm22.156 22.411a.62.62 0 01-.83.83.574.574 0 01-.264-.264.62.62 0 01.83-.83.577.577 0 01.264.264zm99.026-21.599a.623.623 0 01-.597.904.617.617 0 01-.571-.57.625.625 0 01.477-.652.62.62 0 01.427.053.53.53 0 01.264.265zm-6.774 14.922a.621.621 0 01-.83.83.52.52 0 01-.255-.264.617.617 0 01.444-.892.613.613 0 01.377.062c.118.05.213.145.264.264zm18.737 45.379a.622.622 0 01-.83.83.551.551 0 01-.255-.265.622.622 0 01.455-.885.62.62 0 01.374.055.517.517 0 01.256.265zm-18.801-18.106a.622.622 0 01-.83.83.53.53 0 01-.264-.264.621.621 0 01.83-.83.573.573 0 01.264.264zm19.758-17.714a.621.621 0 01-.83.83.574.574 0 01-.264-.264.622.622 0 01.83-.83c.115.056.208.15.264.264zm96.064-21.581a.621.621 0 01-.83.83.53.53 0 01-.264-.264.62.62 0 011.094-.566zM214.394 73.09a.621.621 0 01-.83.83.53.53 0 01-.264-.264.62.62 0 111.094-.566zm93.775 16.263a.621.621 0 01-.83.83.53.53 0 01-.264-.264.62.62 0 111.094-.566zm78.029 22.785a.624.624 0 01-.455.886.63.63 0 01-.375-.055.536.536 0 01-.264-.265.62.62 0 01.829-.83.575.575 0 01.265.264zm-51.232-67.132a.622.622 0 01-.83.83.521.521 0 01-.255-.265.606.606 0 01.104-.717.612.612 0 01.716-.113.528.528 0 01.265.265zm40.035 43.882a.615.615 0 01-.184.786.618.618 0 01-.984-.453.62.62 0 01.904-.597.53.53 0 01.264.264zm-9.865 11.776a.622.622 0 01-.83.83.575.575 0 01-.264-.265.622.622 0 01.83-.83c.115.056.208.15.264.265zm-14.342 14.676a.608.608 0 01-.112.716.613.613 0 01-.718.105.56.56 0 01-.264-.256.62.62 0 01.83-.83.484.484 0 01.264.265zm-12.455-37.26a.62.62 0 11-.264-.265.53.53 0 01.264.264zm110.716-27.291a.622.622 0 01-.83.83.521.521 0 01-.255-.265.621.621 0 01.83-.83.52.52 0 01.255.265zm-2.863 4.113a.622.622 0 01-.455.885.62.62 0 01-.375-.055.502.502 0 01-.264-.264.614.614 0 01.112-.716.614.614 0 01.718-.105.56.56 0 01.264.255zm94.422 37.717a.615.615 0 01-.455.885.618.618 0 01-.374-.055.503.503 0 01-.265-.265.614.614 0 01.454-.886.612.612 0 01.376.066.55.55 0 01.264.255zm-51.761 21.088a.614.614 0 01.055.375.612.612 0 01-.51.51.62.62 0 01-.374-.055.57.57 0 01-.265-.264.622.622 0 01.83-.83.53.53 0 01.264.264zm56.931-9.185a.614.614 0 01-.821.83.505.505 0 01-.264-.264.614.614 0 01.444-.892.609.609 0 01.377.062c.119.05.213.145.264.264zm-104.415 11.721a.622.622 0 01-.83.83.57.57 0 01-.264-.265.612.612 0 01-.055-.374.62.62 0 01.884-.456c.115.057.209.15.265.265zm-1.295-28.814a.621.621 0 01-.83.83.574.574 0 01-.264-.265.622.622 0 01.83-.83.53.53 0 01.264.265zm64.097 26.835a.62.62 0 01-.83.83.58.58 0 01-.264-.265.622.622 0 01.83-.83.57.57 0 01.264.265zm20.095-41.156a.614.614 0 01-.118.712.617.617 0 01-.711.118.528.528 0 01-.265-.264.621.621 0 01.83-.83c.115.056.208.15.264.264z" fill="#fff" opacity=".28"/><path style="mix-blend-mode:color-dodge" d="M279.157 105.963c.347 0 .629-4.97.629-11.1 0-6.131-.282-11.1-.629-11.1-.348 0-.629 4.969-.629 11.1 0 6.13.281 11.1.629 11.1z" fill="url(#paint2_radial_7_273)"/><path style="mix-blend-mode:color-dodge" d="M268.061 94.863c0-.347 4.969-.63 11.096-.63s11.087.283 11.087.63c0 .346-4.96.629-11.087.629s-11.096-.283-11.096-.63z" fill="url(#paint3_radial_7_273)"/></g><path d="M241.669 164h-2.49v-19.204h-6.783v-2.212h16.055v2.212h-6.782V164zm28.608-10.737c0 3.427-.869 6.123-2.607 8.086-1.729 1.963-4.136 2.944-7.222 2.944-3.154 0-5.591-.962-7.309-2.886-1.709-1.933-2.564-4.658-2.564-8.174 0-3.486.86-6.186 2.578-8.1 1.719-1.924 4.16-2.886 7.325-2.886 3.076 0 5.478.977 7.207 2.93 1.728 1.953 2.592 4.648 2.592 8.086zm-17.065 0c0 2.9.615 5.102 1.846 6.606 1.24 1.494 3.037 2.241 5.39 2.241 2.373 0 4.165-.747 5.376-2.241 1.211-1.494 1.817-3.696 1.817-6.606 0-2.881-.606-5.064-1.817-6.548-1.201-1.494-2.983-2.241-5.346-2.241-2.374 0-4.18.752-5.42 2.255-1.231 1.495-1.846 3.672-1.846 6.534zM290.536 164h-2.93l-7.807-10.386-2.241 1.992V164h-2.491v-21.416h2.491v10.62l9.712-10.62h2.944l-8.613 9.302L290.536 164zm14.898 0h-11.939v-21.416h11.939v2.212h-9.449v6.899h8.877v2.198h-8.877v7.88h9.449V164zm21.489 0h-2.842l-11.704-17.974h-.117c.156 2.11.234 4.043.234 5.801V164h-2.3v-21.416h2.813l11.675 17.9h.117a150.59 150.59 0 01-.132-2.534c-.068-1.435-.093-2.461-.073-3.076v-12.29h2.329V164z" fill="#3A9BF4"/><defs><radialGradient id="paint0_radial_7_273" cx="0" cy="0" r="1" gradientUnits="userSpaceOnUse" gradientTransform="matrix(509.266 0 0 433.049 369.102 -178.402)"><stop stop-color="#00D1FF"/><stop offset=".27" stop-color="#0073A7"/><stop offset=".36" stop-color="#04628F"/><stop offset=".57" stop-color="#0C4161"/><stop offset=".75" stop-color="#122A3F"/><stop offset=".9" stop-color="#161B2A"/><stop offset="1" stop-color="#171623"/></radialGradient><radialGradient id="paint1_radial_7_273" cx="0" cy="0" r="1" gradientUnits="userSpaceOnUse" gradientTransform="matrix(650.608 0 0 442.59 271.197 527.226)"><stop stop-color="#3A9BF4"/><stop offset=".383" stop-color="#3A9BF4" stop-opacity=".52"/><stop offset="1"/></radialGradient><radialGradient id="paint2_radial_7_273" cx="0" cy="0" r="1" gradientUnits="userSpaceOnUse" gradientTransform="matrix(0 -14.2816 13.7593 0 3464.16 -1497.98)"><stop stop-color="#fff"/><stop offset="1"/></radialGradient><radialGradient id="paint3_radial_7_273" cx="0" cy="0" r="1" gradientUnits="userSpaceOnUse" gradientTransform="matrix(-251.691 0 0 -.78043 -16792.1 74.98)"><stop stop-color="#fff"/><stop offset="1"/></radialGradient><clipPath id="clip0_7_273"><path fill="#fff" transform="translate(-75 16)" d="M0 0h682v455.152H0z"/></clipPath></defs></svg>