<svg width="149" height="38" viewBox="0 0 149 38" fill="none" xmlns="http://www.w3.org/2000/svg">
<g clip-path="url(#clip0_718_11)">
<path d="M53.5614 24.6951C54.0318 24.7056 54.5017 24.6601 54.9606 24.5598C55.2765 24.4917 55.5758 24.3654 55.8422 24.1877C56.0497 24.0512 56.2105 23.8581 56.304 23.6329C56.3919 23.4022 56.4357 23.1581 56.4334 22.9123C56.4336 22.6293 56.3592 22.351 56.2171 22.1036C56.0751 21.8561 55.8702 21.6478 55.6218 21.4983C54.7475 20.9809 53.8065 20.5772 52.8232 20.2973C52.2425 20.1011 51.6595 19.8756 51.0741 19.6208C50.508 19.3736 49.9824 19.0477 49.5139 18.6532C49.0386 18.2652 48.6484 17.789 48.3665 17.2527C48.0543 16.6198 47.9032 15.9239 47.9257 15.223C47.914 14.485 48.0717 13.7536 48.3875 13.0816C48.6889 12.4523 49.1353 11.898 49.6923 11.4612C50.3007 10.997 50.9971 10.6522 51.7423 10.4464C52.6222 10.1959 53.5362 10.075 54.4534 10.0878C56.2779 10.0513 58.0824 10.4597 59.7007 11.2752L58.5498 14.3198C58.0187 14.0583 57.4665 13.8388 56.8987 13.6635C56.1883 13.4598 55.4495 13.364 54.7088 13.3793C53.7526 13.3793 53.0658 13.5079 52.6483 13.765C52.4444 13.8881 52.2786 14.0621 52.1684 14.2687C52.0582 14.4753 52.0077 14.7068 52.0221 14.9388C52.0123 15.2195 52.093 15.4961 52.253 15.7304C52.4272 15.9647 52.6485 16.1626 52.9037 16.3123C53.2107 16.4943 53.5353 16.6473 53.8727 16.769C54.2225 16.9111 54.6458 17.0531 55.0901 17.202C56.0229 17.5335 56.8252 17.8594 57.4969 18.1796C58.1228 18.4657 58.6978 18.8459 59.2005 19.3061C59.6487 19.732 59.9939 20.2483 60.2115 20.8183C60.4551 21.4943 60.5735 22.2066 60.5613 22.9225C60.5613 24.5214 59.9783 25.7618 58.8122 26.6436C57.6461 27.5254 55.897 27.9663 53.5649 27.9663C52.8546 27.9718 52.1448 27.9266 51.4414 27.831C50.875 27.752 50.3142 27.6391 49.7623 27.4927C49.3353 27.3812 48.9168 27.241 48.5099 27.0733C48.1601 26.9244 47.8662 26.7857 47.6249 26.6538L48.7513 23.5821C49.378 23.9087 50.0396 24.1684 50.7243 24.3568C51.6487 24.5985 52.6039 24.7124 53.5614 24.6951V24.6951Z" fill="white"/>
<path d="M63.2375 11.3597L67.0505 10.7677V14.6039H71.6332V17.6722H67.0505V22.2526C67.0186 22.8971 67.1647 23.5381 67.4738 24.1098C67.7537 24.5733 68.3239 24.7864 69.1775 24.7864C69.6021 24.785 70.0259 24.7476 70.4438 24.6748C70.8499 24.6091 71.2483 24.5048 71.6332 24.3636L72.1719 27.2356C71.6739 27.4409 71.1605 27.6094 70.6362 27.7397C69.9551 27.8841 69.2589 27.951 68.5618 27.9393C67.6807 27.9666 66.8026 27.8275 65.9766 27.5299C65.3395 27.2891 64.7761 26.8956 64.3394 26.3865C63.9129 25.8703 63.6181 25.2642 63.4788 24.6173C63.3111 23.8614 63.2301 23.09 63.2375 22.3169V11.3597Z" fill="white"/>
<path d="M86.2243 27.1781C85.3997 27.3965 84.5621 27.566 83.7161 27.6856C82.6492 27.8472 81.5706 27.9263 80.4907 27.9224C79.5185 27.9505 78.5496 27.799 77.6361 27.4758C76.9332 27.2173 76.3113 26.7873 75.8311 26.2275C75.374 25.6628 75.0504 25.0081 74.883 24.3095C74.6884 23.5057 74.5945 22.6823 74.6032 21.8569V14.6039H78.4163V21.4103C78.4163 22.5966 78.5783 23.4547 78.9025 23.9847C79.2278 24.5158 79.833 24.7763 80.7216 24.7763C80.9945 24.7763 81.2848 24.7763 81.5891 24.7425C81.8935 24.7086 82.1699 24.6883 82.4112 24.6545V14.6039H86.2243V27.1781Z" fill="white"/>
<path d="M101.686 27.2052C101.337 27.3033 100.952 27.398 100.508 27.4894C100.063 27.5807 99.598 27.6585 99.1083 27.7228C98.6185 27.7871 98.1288 27.8446 97.625 27.8852C97.1213 27.9258 96.6385 27.9461 96.1767 27.9461C95.1656 27.9625 94.1597 27.8032 93.2068 27.4758C92.3798 27.193 91.6296 26.7334 91.0118 26.1313C90.394 25.5292 89.9246 24.8001 89.6386 23.9982C89.3087 23.0959 89.1476 22.144 89.1628 21.187C89.1501 20.2197 89.288 19.2561 89.5721 18.3285C89.8139 17.5388 90.2145 16.803 90.751 16.1634C91.2584 15.5744 91.9036 15.1105 92.6331 14.8103C93.4388 14.4833 94.3061 14.322 95.1798 14.3367C95.6576 14.3319 96.1344 14.3819 96.6 14.4855C97.034 14.591 97.4576 14.7325 97.8664 14.9084V9.00863L101.683 8.41663L101.686 27.2052ZM93.0528 21.0145C93.0025 21.9887 93.2798 22.9525 93.8434 23.7614C94.1173 24.1094 94.4759 24.3866 94.8872 24.5684C95.2985 24.7501 95.7499 24.8308 96.2012 24.8033C96.5511 24.8033 96.8554 24.8033 97.1458 24.7661C97.4361 24.7289 97.674 24.712 97.8454 24.6782V17.9699C97.5633 17.8008 97.2568 17.6731 96.9359 17.591C96.5557 17.494 96.1641 17.4451 95.771 17.4456C93.9589 17.4501 93.0528 18.6397 93.0528 21.0145Z" fill="white"/>
<path d="M116.841 14.6039C116.069 17.114 115.264 19.4629 114.427 21.6505C113.59 23.8381 112.674 25.9693 111.681 28.0442C111.371 28.7008 111.011 29.334 110.603 29.9386C110.278 30.422 109.881 30.8563 109.425 31.2275C108.998 31.5657 108.505 31.8176 107.976 31.9683C107.363 32.1349 106.728 32.2147 106.091 32.2051C105.536 32.2094 104.982 32.155 104.44 32.0427C104.016 31.958 103.6 31.838 103.198 31.6842L103.862 28.7377C104.204 28.8561 104.555 28.9477 104.912 29.0117C105.233 29.0615 105.559 29.0863 105.884 29.0861C106.17 29.104 106.457 29.0659 106.728 28.9741C106.998 28.8822 107.247 28.7385 107.459 28.5516C107.87 28.1277 108.188 27.627 108.393 27.08C107.52 25.4292 106.65 23.5765 105.783 21.522C104.84 19.2597 104.023 16.9504 103.334 14.6039H107.378C107.551 15.2467 107.752 15.9436 107.983 16.6946C108.214 17.4456 108.459 18.2067 108.714 18.9713C108.97 19.7358 109.232 20.4868 109.498 21.2141C109.764 21.9414 110.019 22.5977 110.257 23.1931C110.481 22.5977 110.712 21.9414 110.957 21.2141C111.202 20.4868 111.433 19.7392 111.656 18.9713C111.88 18.2033 112.108 17.4456 112.325 16.6946C112.541 15.9436 112.73 15.2467 112.902 14.6039H116.841Z" fill="white"/>
<path d="M126.286 27.9697C125.188 27.9936 124.094 27.8216 123.061 27.4623C122.214 27.1617 121.448 26.6794 120.822 26.0516C120.226 25.4379 119.78 24.7027 119.517 23.9001C119.225 23.0075 119.082 22.0757 119.094 21.1397V10.487H123.103V20.8183C123.089 21.4165 123.171 22.0132 123.344 22.5876C123.477 23.0239 123.704 23.4284 124.009 23.775C124.285 24.0764 124.639 24.3027 125.034 24.4312C125.459 24.5675 125.904 24.6349 126.352 24.6308C126.79 24.6498 127.227 24.5826 127.636 24.4331C128.046 24.2836 128.419 24.0551 128.735 23.7614C129.34 23.1863 129.644 22.2019 129.644 20.8183V10.487H133.632V21.1397C133.643 22.0798 133.497 23.0155 133.199 23.9103C132.928 24.7207 132.473 25.4618 131.866 26.0787C131.227 26.7069 130.448 27.1849 129.588 27.4758C128.527 27.8295 127.408 27.9968 126.286 27.9697V27.9697Z" fill="white"/>
<path d="M149 21.116C149.01 22.0448 148.881 22.9702 148.615 23.8629C148.387 24.6366 148.005 25.3596 147.489 25.9907C146.994 26.5856 146.363 27.0605 145.645 27.3777C144.849 27.7199 143.984 27.8885 143.112 27.8716C142.614 27.8742 142.117 27.8243 141.629 27.7228C141.172 27.6265 140.725 27.4859 140.296 27.3033V32.2051H136.483V15.0505C136.833 14.949 137.218 14.8543 137.659 14.7663C138.1 14.6784 138.568 14.5972 139.058 14.5295C139.548 14.4619 140.041 14.4111 140.545 14.3671C141.049 14.3232 141.528 14.3062 141.99 14.3062C143.002 14.2907 144.008 14.4547 144.96 14.79C145.788 15.0775 146.539 15.5414 147.158 16.1474C147.776 16.7535 148.245 17.4861 148.531 18.2913C148.856 19.1993 149.015 20.1552 149 21.116V21.116ZM145.11 21.2141C145.16 20.2426 144.881 19.2818 144.316 18.4773C144.039 18.1355 143.679 17.8643 143.269 17.6874C142.859 17.5105 142.41 17.4333 141.962 17.4625C141.612 17.4625 141.304 17.4625 141.014 17.4997C140.723 17.5369 140.485 17.5504 140.296 17.5843V24.2316C140.586 24.402 140.901 24.5276 141.23 24.6038C141.61 24.7035 142.002 24.7535 142.395 24.7526C144.205 24.7526 145.11 23.5731 145.11 21.2141Z" fill="white"/>
<path d="M24.617 11.3665C24.2003 11.1177 23.7167 10.9939 23.2273 11.0108C22.7378 11.0277 22.2646 11.1845 21.8673 11.4614C21.47 11.7384 21.1666 12.123 20.9953 12.5667C20.824 13.0104 20.7926 13.4933 20.9051 13.9542C21.0175 14.4152 21.2687 14.8335 21.627 15.1564C21.9853 15.4793 22.4345 15.6923 22.9179 15.7683C23.4013 15.8444 23.8972 15.7801 24.3428 15.5837C24.7885 15.3873 25.1639 15.0675 25.4216 14.6648C25.5929 14.3972 25.708 14.0996 25.7602 13.7889C25.8125 13.4783 25.8009 13.1607 25.7262 12.8544C25.6515 12.5481 25.5151 12.259 25.3248 12.0037C25.1344 11.7484 24.8939 11.5319 24.617 11.3665ZM24.7535 12.307C24.3651 12.087 23.9033 12.0226 23.4665 12.1274C23.0297 12.2322 22.6526 12.4979 22.4156 12.8679C22.1787 13.2379 22.1007 13.6828 22.1982 14.1076C22.2958 14.5325 22.5612 14.9036 22.9379 15.1418H22.9589C22.7399 15.0998 22.5303 15.0208 22.3397 14.9084C21.9222 14.659 21.6242 14.2594 21.5114 13.7975C21.3986 13.3357 21.4801 12.8494 21.738 12.4457C21.9959 12.0419 22.4091 11.7538 22.8867 11.6447C23.3643 11.5356 23.8672 11.6144 24.2847 11.8638C24.4779 11.9783 24.6465 12.1276 24.7815 12.3036L24.7535 12.307Z" fill="white"/>
<path d="M29.8224 11.0756C29.8224 8.33205 28.6645 5.05403 28.6645 5.05403C26.5797 5.32945 24.5458 5.88866 22.623 6.71503C20.706 6.28164 18.7124 6.27291 16.7913 6.6895C14.8703 7.10608 13.0715 7.9372 11.5293 9.12073C9.98722 10.3043 8.74169 11.8096 7.88587 13.5241C7.03006 15.2387 6.58609 17.1181 6.58716 19.022C6.58213 21.831 7.55015 24.5607 9.33677 26.7756C12.0619 25.233 14.1188 22.5503 14.1188 22.5503C14.8748 23.2885 15.7274 23.9276 16.6551 24.4515C16.6551 24.4515 16.0674 26.3696 13.4367 29.4582C13.6151 29.3466 16.4417 27.486 17.7885 25.0334C18.0613 25.1518 18.3517 25.26 18.6456 25.3717C18.6456 25.3717 16.9664 28.6835 16.4871 31.3086C19.1503 31.959 21.9577 31.7814 24.5105 30.8011C27.0634 29.8208 29.232 28.0876 30.7083 25.8476C32.1846 23.6077 32.8936 20.9749 32.7345 18.3231C32.5755 15.6714 31.5566 13.1355 29.8224 11.0756ZM28.1607 15.0674C26.723 18.3082 21.7555 22.2324 21.6016 22.3541L23.6095 21.5355C25.4251 22.6146 25.3586 23.7749 24.3092 25.5239C22.5916 28.1693 18.2468 30.1855 18.2468 30.1855C18.2468 30.1855 20.9789 26.5895 21.2412 25.5341C21.5036 24.4786 20.3457 23.6498 20.1708 23.5043C20.1708 23.5043 20.0029 24.2486 19.8944 24.6274C18.8494 24.3487 17.854 23.9187 16.9419 23.3521C16.0032 22.826 15.1604 22.154 14.4477 21.3629C14.752 21.0991 15.3677 20.6255 15.3677 20.6255C15.1648 20.5341 13.888 19.9015 13.0239 20.5984C12.1598 21.2953 10.0329 25.2702 10.0329 25.2702C10.0329 25.2702 9.96645 20.6119 11.6526 17.9293C12.807 16.2379 13.8425 15.6594 15.6511 16.7521L15.784 18.8562C15.784 18.8562 17.2183 12.6622 19.6321 9.93216C21.9269 7.32733 27.4191 6.326 27.9124 6.24143C28.0348 6.71841 29.553 11.9213 28.1607 15.0674Z" fill="white"/>
<path d="M19.6495 -3.2667e-05C17.0473 -0.0336114 14.4641 0.433032 12.0499 1.37281C9.63564 2.31258 7.43852 3.70676 5.58605 5.4744C3.73359 7.24205 2.26269 9.34794 1.25875 11.6698C0.254808 13.9917 -0.262169 16.4833 -0.262169 19C-0.262169 21.5166 0.254808 24.0082 1.25875 26.3301C2.26269 28.652 3.73359 30.7579 5.58605 32.5255C7.43852 34.2932 9.63564 35.6874 12.0499 36.6271C14.4641 37.5669 17.0473 38.0335 19.6495 38C20.2338 38 20.8145 37.9729 21.3987 37.9255C21.6259 36.7298 22.0127 35.5676 22.5496 34.4682C21.5962 34.6358 20.6291 34.7196 19.66 34.7186C17.2542 34.7191 14.8782 34.2031 12.7034 33.208C10.5287 32.2129 8.60955 30.7634 7.08435 28.9641C5.55915 27.1648 4.46595 25.0605 3.88364 22.8032C3.30133 20.5458 3.24442 18.1915 3.71701 15.9103C4.18961 13.6291 5.17993 11.4777 6.61652 9.61145C8.05311 7.74518 9.90016 6.21054 12.0244 5.11824C14.1486 4.02594 16.4971 3.40322 18.9004 3.295C21.3037 3.18678 23.7018 3.59577 25.9219 4.49244C26.783 4.27848 27.6568 4.1158 28.5385 4.00531L29.4096 3.90721L29.6965 4.70895C29.7209 4.78676 30.0848 5.82192 30.3961 7.21905C32.1651 8.72857 33.5731 10.5924 34.5221 12.6811C35.4712 14.7698 35.9387 17.0333 35.8921 19.3143C35.8455 21.5953 35.2859 23.8392 34.2523 25.89C33.2186 27.9408 31.7356 29.7494 29.9063 31.1902C28.1188 32.6652 26.0583 34.8437 25.3587 37.1847C29.8676 35.8616 33.7348 33.0157 36.2553 29.1658C38.7757 25.3159 39.7816 20.7182 39.0896 16.211C38.3976 11.7038 36.0538 7.58716 32.4853 4.61145C28.9169 1.63573 24.3615 -0.000868262 19.6495 -3.2667e-05V-3.2667e-05Z" fill="white"/>
</g>
<defs>
<clipPath id="clip0_718_11">
<rect width="149" height="38" fill="white"/>
</clipPath>
</defs>
</svg>
