<svg width="54" height="54" viewBox="0 0 54 54" fill="none" xmlns="http://www.w3.org/2000/svg">
<circle opacity="0.3" cx="27" cy="27" r="27" fill="white"/>
<path d="M42.7795 11L29.3231 21.0103L31.8256 15.1026L42.7795 11Z" fill="#E17726" stroke="#E17726" stroke-width="0.542373" stroke-linecap="round" stroke-linejoin="round"/>
<path d="M11.682 11L25.0564 21.0923L22.6769 15.1026L11.682 11Z" fill="#E27625" stroke="#E27625" stroke-width="0.542373" stroke-linecap="round" stroke-linejoin="round"/>
<path d="M37.9384 34.1795L34.3282 39.6769L42.041 41.8103L44.2153 34.3026L37.9384 34.1795Z" fill="#E27625" stroke="#E27625" stroke-width="0.542373" stroke-linecap="round" stroke-linejoin="round"/>
<path d="M10.2872 34.3026L12.4615 41.8103L20.1333 39.6769L16.5641 34.1795L10.2872 34.3026Z" fill="#E27625" stroke="#E27625" stroke-width="0.542373" stroke-linecap="round" stroke-linejoin="round"/>
<path d="M19.723 24.9077L17.5897 28.1487L25.1794 28.4769L24.9333 20.2718L19.723 24.9077Z" fill="#E27625" stroke="#E27625" stroke-width="0.542373" stroke-linecap="round" stroke-linejoin="round"/>
<path d="M34.7795 24.9077L29.4872 20.1898L29.3231 28.4769L36.9128 28.1487L34.7795 24.9077Z" fill="#E27625" stroke="#E27625" stroke-width="0.542373" stroke-linecap="round" stroke-linejoin="round"/>
<path d="M20.1333 39.6769L24.7282 37.4615L20.7487 34.3436L20.1333 39.6769Z" fill="#E27625" stroke="#E27625" stroke-width="0.542373" stroke-linecap="round" stroke-linejoin="round"/>
<path d="M29.7743 37.4615L34.3282 39.6769L33.7128 34.3436L29.7743 37.4615Z" fill="#E27625" stroke="#E27625" stroke-width="0.542373" stroke-linecap="round" stroke-linejoin="round"/>
<path d="M34.3282 39.6769L29.7744 37.4615L30.1436 40.4154L30.1026 41.6872L34.3282 39.6769Z" fill="#D5BFB2" stroke="#D5BFB2" stroke-width="0.542373" stroke-linecap="round" stroke-linejoin="round"/>
<path d="M20.1334 39.6769L24.4001 41.6872L24.359 40.4154L24.7283 37.4615L20.1334 39.6769Z" fill="#D5BFB2" stroke="#D5BFB2" stroke-width="0.542373" stroke-linecap="round" stroke-linejoin="round"/>
<path d="M24.482 32.3743L20.6667 31.2667L23.3333 30.0359L24.482 32.3743Z" fill="#233447" stroke="#233447" stroke-width="0.542373" stroke-linecap="round" stroke-linejoin="round"/>
<path d="M30.0205 32.3743L31.1282 30.0359L33.8359 31.2667L30.0205 32.3743Z" fill="#233447" stroke="#233447" stroke-width="0.542373" stroke-linecap="round" stroke-linejoin="round"/>
<path d="M20.1333 39.6769L20.7897 34.1795L16.5641 34.3026L20.1333 39.6769Z" fill="#CC6228" stroke="#CC6228" stroke-width="0.542373" stroke-linecap="round" stroke-linejoin="round"/>
<path d="M33.7128 34.1795L34.3282 39.6769L37.9384 34.3026L33.7128 34.1795Z" fill="#CC6228" stroke="#CC6228" stroke-width="0.542373" stroke-linecap="round" stroke-linejoin="round"/>
<path d="M36.9128 28.1487L29.3231 28.4769L30.0205 32.3743L31.1282 30.0359L33.8359 31.2666L36.9128 28.1487Z" fill="#CC6228" stroke="#CC6228" stroke-width="0.542373" stroke-linecap="round" stroke-linejoin="round"/>
<path d="M20.6666 31.2666L23.3333 30.0359L24.482 32.3743L25.1794 28.4769L17.5897 28.1487L20.6666 31.2666Z" fill="#CC6228" stroke="#CC6228" stroke-width="0.542373" stroke-linecap="round" stroke-linejoin="round"/>
<path d="M17.5897 28.1487L20.7487 34.3436L20.6666 31.2666L17.5897 28.1487Z" fill="#E27525" stroke="#E27525" stroke-width="0.542373" stroke-linecap="round" stroke-linejoin="round"/>
<path d="M33.8359 31.2666L33.7128 34.3436L36.9128 28.1487L33.8359 31.2666Z" fill="#E27525" stroke="#E27525" stroke-width="0.542373" stroke-linecap="round" stroke-linejoin="round"/>
<path d="M25.1795 28.4769L24.4821 32.3743L25.3436 37.0102L25.5487 30.8974L25.1795 28.4769Z" fill="#E27525" stroke="#E27525" stroke-width="0.542373" stroke-linecap="round" stroke-linejoin="round"/>
<path d="M29.3231 28.4769L28.9539 30.8974L29.118 37.0102L30.0206 32.3743L29.3231 28.4769Z" fill="#E27525" stroke="#E27525" stroke-width="0.542373" stroke-linecap="round" stroke-linejoin="round"/>
<path d="M30.0205 32.3744L29.1179 37.0103L29.7743 37.4615L33.7128 34.3436L33.8359 31.2667L30.0205 32.3744Z" fill="#F5841F" stroke="#F5841F" stroke-width="0.542373" stroke-linecap="round" stroke-linejoin="round"/>
<path d="M20.6667 31.2667L20.7487 34.3436L24.7282 37.4615L25.3436 37.0103L24.482 32.3744L20.6667 31.2667Z" fill="#F5841F" stroke="#F5841F" stroke-width="0.542373" stroke-linecap="round" stroke-linejoin="round"/>
<path d="M30.1026 41.6871L30.1436 40.4153L29.7744 40.1282H24.6872L24.359 40.4153L24.4001 41.6871L20.1334 39.6769L21.6103 40.9076L24.6462 43H29.8154L32.8513 40.9076L34.3283 39.6769L30.1026 41.6871Z" fill="#C0AC9D" stroke="#C0AC9D" stroke-width="0.542373" stroke-linecap="round" stroke-linejoin="round"/>
<path d="M29.7744 37.4615L29.118 37.0103H25.3436L24.7282 37.4615L24.359 40.4154L24.6872 40.1282H29.7744L30.1436 40.4154L29.7744 37.4615Z" fill="#161616" stroke="#161616" stroke-width="0.542373" stroke-linecap="round" stroke-linejoin="round"/>
<path d="M43.3538 21.6667L44.5026 16.1282L42.7795 11L29.7744 20.6821L34.7795 24.9077L41.8359 26.959L43.3949 25.1538L42.7385 24.6615L43.8051 23.6769L42.9846 23.0205L44.0513 22.2L43.3538 21.6667Z" fill="#763E1A" stroke="#763E1A" stroke-width="0.542373" stroke-linecap="round" stroke-linejoin="round"/>
<path d="M10 16.1282L11.1487 21.6667L10.4103 22.2L11.4769 23.0205L10.6564 23.6769L11.7641 24.6615L11.0667 25.1538L12.6256 26.959L19.7231 24.9077L24.7282 20.6821L11.6821 11L10 16.1282Z" fill="#763E1A" stroke="#763E1A" stroke-width="0.542373" stroke-linecap="round" stroke-linejoin="round"/>
<path d="M41.8359 26.959L34.7795 24.9077L36.9128 28.1487L33.7128 34.3436L37.9385 34.3026H44.2154L41.8359 26.959Z" fill="#F5841F" stroke="#F5841F" stroke-width="0.542373" stroke-linecap="round" stroke-linejoin="round"/>
<path d="M19.7231 24.9077L12.6257 26.959L10.2872 34.3026H16.5641L20.7487 34.3436L17.5898 28.1487L19.7231 24.9077Z" fill="#F5841F" stroke="#F5841F" stroke-width="0.542373" stroke-linecap="round" stroke-linejoin="round"/>
<path d="M29.3231 28.4769L29.7743 20.682L31.8256 15.1025H22.6769L24.7282 20.682L25.1795 28.4769L25.3436 30.9384V37.0102H29.1179V30.9384L29.3231 28.4769Z" fill="#F5841F" stroke="#F5841F" stroke-width="0.542373" stroke-linecap="round" stroke-linejoin="round"/>
</svg>
