<svg width="557" height="173" viewBox="0 0 557 173" fill="none" xmlns="http://www.w3.org/2000/svg">
<mask id="mask0_7_273" style="mask-type:alpha" maskUnits="userSpaceOnUse" x="4" y="38" width="549" height="84">
<path d="M60.9219 95.7188C60.9219 100.677 59.6641 105.089 57.1484 108.953C54.6328 112.781 51.0052 115.771 46.2656 117.922C41.526 120.036 35.9661 121.094 29.5859 121.094C24.263 121.094 19.7969 120.729 16.1875 120C12.5781 119.234 8.82292 117.922 4.92188 116.062V96.8125C9.04167 98.9271 13.3255 100.586 17.7734 101.789C22.2214 102.956 26.3047 103.539 30.0234 103.539C33.2318 103.539 35.5833 102.992 37.0781 101.898C38.5729 100.768 39.3203 99.3281 39.3203 97.5781C39.3203 96.4844 39.0104 95.5365 38.3906 94.7344C37.8073 93.8958 36.8411 93.0573 35.4922 92.2188C34.1797 91.3802 30.6432 89.6667 24.8828 87.0781C19.6693 84.7083 15.75 82.4115 13.125 80.1875C10.5365 77.9635 8.60417 75.4115 7.32812 72.5312C6.08854 69.651 5.46875 66.2422 5.46875 62.3047C5.46875 54.9401 8.14844 49.1979 13.5078 45.0781C18.8672 40.9583 26.2318 38.8984 35.6016 38.8984C43.8776 38.8984 52.3177 40.8125 60.9219 44.6406L54.3047 61.3203C46.8307 57.8932 40.3776 56.1797 34.9453 56.1797C32.138 56.1797 30.0964 56.6719 28.8203 57.6562C27.5443 58.6406 26.9062 59.862 26.9062 61.3203C26.9062 62.888 27.7083 64.2917 29.3125 65.5312C30.9531 66.7708 35.3646 69.0312 42.5469 72.3125C49.4375 75.4115 54.2135 78.7474 56.875 82.3203C59.5729 85.8568 60.9219 90.3229 60.9219 95.7188ZM108.555 120H86.9531V57.7109H67.4297V40.0469H128.023V57.7109H108.555V120ZM207.43 40.0469V88.1719C207.43 98.6354 204.458 106.747 198.516 112.508C192.609 118.232 184.078 121.094 172.922 121.094C162.021 121.094 153.635 118.305 147.766 112.727C141.932 107.148 139.016 99.1276 139.016 88.6641V40.0469H160.727V86.9688C160.727 92.6198 161.784 96.7214 163.898 99.2734C166.013 101.826 169.13 103.102 173.25 103.102C177.661 103.102 180.852 101.844 182.82 99.3281C184.826 96.776 185.828 92.6198 185.828 86.8594V40.0469H207.43ZM292.086 78.3281C292.086 91.6719 288.404 101.953 281.039 109.172C273.711 116.391 263.393 120 250.086 120H224.219V40.0469H251.891C264.724 40.0469 274.622 43.3281 281.586 49.8906C288.586 56.4531 292.086 65.9323 292.086 78.3281ZM269.664 79.0938C269.664 71.7656 268.206 66.3333 265.289 62.7969C262.409 59.2604 258.016 57.4922 252.109 57.4922H245.82V102.281H250.633C257.195 102.281 262.008 100.385 265.07 96.5938C268.133 92.7656 269.664 86.9323 269.664 79.0938ZM335.016 69.6875L348.797 40.0469H372.203L345.898 88.7734V120H324.133V89.4297L297.828 40.0469H321.344L335.016 69.6875ZM477.914 40.0469V88.1719C477.914 98.6354 474.943 106.747 469 112.508C463.094 118.232 454.562 121.094 443.406 121.094C432.505 121.094 424.12 118.305 418.25 112.727C412.417 107.148 409.5 99.1276 409.5 88.6641V40.0469H431.211V86.9688C431.211 92.6198 432.268 96.7214 434.383 99.2734C436.497 101.826 439.615 103.102 443.734 103.102C448.146 103.102 451.336 101.844 453.305 99.3281C455.31 96.776 456.312 92.6198 456.312 86.8594V40.0469H477.914ZM552.727 65.4766C552.727 74.4089 550.083 81.3177 544.797 86.2031C539.547 91.0521 532.073 93.4766 522.375 93.4766H516.305V120H494.703V40.0469H522.375C532.474 40.0469 540.057 42.2526 545.125 46.6641C550.193 51.0755 552.727 57.3464 552.727 65.4766ZM516.305 75.8672H520.242C523.487 75.8672 526.057 74.9557 527.953 73.1328C529.885 71.3099 530.852 68.7943 530.852 65.5859C530.852 60.1901 527.862 57.4922 521.883 57.4922H516.305V75.8672Z" fill="#17152E"/>
</mask>
<g mask="url(#mask0_7_273)">
<g clip-path="url(#clip0_7_273)">
<path d="M608.422 15.7538H-75.4011V471.818H608.422V15.7538Z" fill="url(#paint0_radial_7_273)"/>
<path style="mix-blend-mode:color-dodge" d="M276.057 985.912C650.716 985.912 954.437 779.373 954.437 524.594C954.437 269.815 650.716 63.2756 276.057 63.2756C-98.6023 63.2756 -402.323 269.815 -402.323 524.594C-402.323 779.373 -98.6023 985.912 276.057 985.912Z" fill="url(#paint1_radial_7_273)"/>
<path d="M457.771 58.1495C457.714 58.2656 457.695 58.3967 457.716 58.5243C457.737 58.6519 457.798 58.7698 457.89 58.8612C457.981 58.9527 458.099 59.0133 458.226 59.0345C458.354 59.0557 458.485 59.0365 458.601 58.9795C458.718 58.9265 458.812 58.8324 458.865 58.715C458.922 58.5988 458.942 58.4678 458.92 58.3401C458.899 58.2125 458.839 58.0947 458.747 58.0032C458.656 57.9117 458.538 57.8511 458.41 57.8299C458.283 57.8087 458.152 57.828 458.036 57.8849C457.921 57.9411 457.827 58.0343 457.771 58.1495V58.1495Z" fill="white"/>
<path d="M438.606 69.8155C438.549 69.9317 438.53 70.0627 438.551 70.1904C438.572 70.318 438.633 70.4358 438.724 70.5273C438.816 70.6188 438.933 70.6794 439.061 70.7006C439.189 70.7218 439.32 70.7025 439.436 70.6455C439.553 70.5925 439.647 70.4985 439.7 70.381C439.749 70.3085 439.782 70.2263 439.797 70.1401C439.812 70.0538 439.809 69.9653 439.787 69.8805C439.765 69.7956 439.726 69.7164 439.672 69.6478C439.617 69.5793 439.549 69.5231 439.471 69.4829C439.393 69.4427 439.308 69.4194 439.22 69.4146C439.133 69.4098 439.046 69.4236 438.964 69.455C438.882 69.4864 438.808 69.5348 438.746 69.5969C438.685 69.6591 438.637 69.7336 438.606 69.8155V69.8155Z" fill="white"/>
<path d="M435.588 56.7631C435.531 56.8793 435.512 57.0103 435.533 57.138C435.554 57.2656 435.615 57.3834 435.706 57.4749C435.798 57.5664 435.916 57.627 436.043 57.6482C436.171 57.6694 436.302 57.6501 436.418 57.5931C436.533 57.5369 436.626 57.4438 436.682 57.3286C436.739 57.2125 436.758 57.0814 436.737 56.9538C436.716 56.8261 436.656 56.7083 436.564 56.6168C436.473 56.5254 436.355 56.4648 436.227 56.4436C436.1 56.4224 435.969 56.4416 435.853 56.4986C435.737 56.5548 435.644 56.6479 435.588 56.7631Z" fill="white"/>
<path d="M337.118 85.267C337.057 85.3828 337.036 85.5148 337.056 85.6437C337.076 85.7725 337.137 85.8916 337.23 85.9833C337.323 86.075 337.442 86.1347 337.572 86.1535C337.701 86.1723 337.832 86.1494 337.947 86.0879C338.064 86.0379 338.158 85.947 338.212 85.8325C338.269 85.7164 338.288 85.5853 338.267 85.4577C338.246 85.33 338.185 85.2122 338.094 85.1208C338.002 85.0293 337.884 84.9687 337.757 84.9475C337.629 84.9263 337.498 84.9455 337.382 85.0025C337.263 85.0533 337.168 85.148 337.118 85.267V85.267Z" fill="white"/>
<path d="M392.635 110.798C392.567 110.929 392.548 111.081 392.581 111.225C392.615 111.369 392.699 111.496 392.819 111.584C392.938 111.671 393.085 111.713 393.233 111.702C393.38 111.691 393.519 111.627 393.624 111.522C393.728 111.417 393.792 111.279 393.803 111.131C393.815 110.983 393.773 110.836 393.685 110.717C393.598 110.598 393.471 110.513 393.326 110.48C393.182 110.446 393.031 110.465 392.899 110.533C392.782 110.586 392.688 110.68 392.635 110.798V110.798Z" fill="white"/>
<path d="M531.041 112.403C530.984 112.519 530.965 112.65 530.986 112.778C531.007 112.905 531.068 113.023 531.159 113.115C531.251 113.206 531.368 113.267 531.496 113.288C531.624 113.309 531.755 113.29 531.871 113.233C531.988 113.18 532.082 113.086 532.135 112.968C532.189 112.826 532.188 112.669 532.133 112.527C532.079 112.386 531.974 112.269 531.839 112.199C531.704 112.129 531.549 112.111 531.401 112.149C531.254 112.187 531.126 112.277 531.041 112.403V112.403Z" fill="white"/>
<path d="M229.42 67.4168C229.36 67.5326 229.338 67.6646 229.358 67.7934C229.379 67.9223 229.44 68.0413 229.532 68.1331C229.625 68.2248 229.745 68.2845 229.874 68.3033C230.003 68.3221 230.135 68.2991 230.25 68.2377C230.366 68.1876 230.46 68.0968 230.514 67.9823C230.571 67.8662 230.59 67.7351 230.569 67.6075C230.548 67.4798 230.487 67.362 230.396 67.2705C230.304 67.179 230.187 67.1185 230.059 67.0973C229.931 67.076 229.8 67.0953 229.684 67.1523C229.567 67.2053 229.473 67.2994 229.42 67.4168V67.4168Z" fill="white"/>
<path d="M123.983 59.7821C123.926 59.8983 123.907 60.0294 123.928 60.157C123.95 60.2846 124.01 60.4024 124.102 60.4939C124.193 60.5854 124.311 60.646 124.438 60.6672C124.566 60.6884 124.697 60.6692 124.813 60.6122C124.931 60.5592 125.025 60.4651 125.078 60.3477C125.134 60.2315 125.154 60.1004 125.132 59.9728C125.111 59.8452 125.051 59.7274 124.959 59.6359C124.868 59.5444 124.75 59.4838 124.623 59.4626C124.495 59.4414 124.364 59.4606 124.248 59.5176C124.133 59.5738 124.04 59.6669 123.983 59.7821V59.7821Z" fill="white"/>
<path d="M60.0506 78.6268C59.9892 78.7419 59.9662 78.8736 59.985 79.0027C60.0039 79.1318 60.0635 79.2515 60.1552 79.3442C60.2469 79.437 60.3659 79.498 60.4947 79.5182C60.6235 79.5385 60.7554 79.517 60.8712 79.4568C60.9309 79.4329 60.9851 79.3972 61.0305 79.3517C61.076 79.3062 61.1117 79.252 61.1356 79.1923C61.1925 79.0761 61.2118 78.9451 61.1906 78.8174C61.1694 78.6898 61.1088 78.572 61.0174 78.4805C60.9259 78.389 60.8082 78.3284 60.6806 78.3072C60.553 78.286 60.422 78.3053 60.3059 78.3622C60.1933 78.4189 60.1033 78.5122 60.0506 78.6268V78.6268Z" fill="white"/>
<path d="M61.7646 107.158C61.6964 107.29 61.6774 107.441 61.7111 107.585C61.7448 107.73 61.829 107.857 61.9484 107.944C62.0678 108.032 62.2147 108.074 62.3623 108.063C62.5099 108.051 62.6485 107.987 62.7532 107.883C62.8579 107.778 62.9217 107.639 62.933 107.492C62.9443 107.344 62.9024 107.197 62.815 107.078C62.7275 106.958 62.6001 106.874 62.456 106.84C62.3118 106.806 62.1604 106.825 62.029 106.894C61.9116 106.947 61.8176 107.041 61.7646 107.158V107.158Z" fill="white"/>
<path d="M42.7361 105.845C42.6792 105.961 42.6599 106.092 42.6811 106.22C42.7023 106.347 42.7629 106.465 42.8543 106.556C42.9458 106.648 43.0635 106.709 43.1911 106.73C43.3187 106.751 43.4497 106.732 43.5658 106.675C43.6848 106.624 43.7795 106.529 43.8302 106.41C43.8792 106.338 43.9123 106.256 43.9272 106.169C43.9422 106.083 43.9388 105.995 43.9171 105.91C43.8955 105.825 43.8561 105.746 43.8016 105.677C43.7471 105.608 43.6787 105.552 43.601 105.512C43.5232 105.472 43.4378 105.449 43.3504 105.444C43.263 105.439 43.1756 105.453 43.0939 105.484C43.0122 105.516 42.9381 105.564 42.8764 105.626C42.8148 105.688 42.7669 105.763 42.7361 105.845V105.845Z" fill="white"/>
<path d="M43.7236 98.8436C43.948 98.6192 43.9335 98.2409 43.6914 97.9987C43.4493 97.7565 43.0712 97.7421 42.8468 97.9665C42.6225 98.1909 42.6369 98.5692 42.8791 98.8114C43.1212 99.0536 43.4993 99.068 43.7236 98.8436Z" fill="white"/>
<path d="M32.3694 55.2216C32.3011 55.353 32.2821 55.5045 32.3159 55.6487C32.3496 55.7929 32.4337 55.9203 32.5532 56.0078C32.6726 56.0953 32.8194 56.1372 32.967 56.1259C33.1146 56.1146 33.2533 56.0508 33.3579 55.946C33.4626 55.8413 33.5264 55.7026 33.5377 55.5549C33.5491 55.4072 33.5072 55.2604 33.4197 55.1409C33.3322 55.0214 33.2049 54.9372 33.0608 54.9035C32.9166 54.8698 32.7651 54.8888 32.6338 54.957C32.5148 55.0078 32.4201 55.1026 32.3694 55.2216V55.2216Z" fill="white"/>
<path d="M8.49936 46.9303C8.43112 47.0617 8.41214 47.2132 8.44586 47.3574C8.47957 47.5017 8.56378 47.629 8.68321 47.7166C8.80263 47.8041 8.94941 47.846 9.09702 47.8346C9.24463 47.8233 9.38331 47.7595 9.48799 47.6548C9.59267 47.5501 9.65644 47.4113 9.66777 47.2637C9.67909 47.116 9.63725 46.9691 9.54976 46.8497C9.46228 46.7302 9.33494 46.646 9.19079 46.6122C9.04664 46.5785 8.89516 46.5975 8.76379 46.6658C8.64485 46.7165 8.55012 46.8113 8.49936 46.9303V46.9303Z" fill="white"/>
<path d="M78.0123 54.0541C77.9554 54.1702 77.9362 54.3013 77.9574 54.4289C77.9786 54.5565 78.0391 54.6743 78.1305 54.7658C78.222 54.8573 78.3397 54.9179 78.4673 54.9391C78.5949 54.9603 78.7259 54.9411 78.842 54.8841C78.9565 54.83 79.0473 54.7359 79.0973 54.6196C79.1587 54.5045 79.1817 54.3727 79.1629 54.2436C79.1441 54.1145 79.0844 53.9949 78.9927 53.9021C78.901 53.8093 78.7821 53.7484 78.6533 53.7281C78.5244 53.7079 78.3925 53.7294 78.2767 53.7895C78.1578 53.8403 78.0631 53.9351 78.0123 54.0541Z" fill="white"/>
<path d="M121.686 73.528C121.629 73.6441 121.61 73.7752 121.631 73.9028C121.652 74.0305 121.713 74.1483 121.804 74.2398C121.896 74.3313 122.013 74.3918 122.141 74.413C122.268 74.4343 122.399 74.415 122.516 74.358C122.633 74.305 122.727 74.211 122.78 74.0935C122.837 73.9774 122.856 73.8463 122.835 73.7187C122.814 73.591 122.753 73.4732 122.662 73.3817C122.57 73.2903 122.453 73.2297 122.325 73.2085C122.197 73.1873 122.066 73.2065 121.95 73.2635C121.835 73.3197 121.742 73.4128 121.686 73.528V73.528Z" fill="white"/>
<path d="M196.396 55.9877C196.336 56.1035 196.314 56.2355 196.334 56.3644C196.355 56.4932 196.416 56.6123 196.508 56.704C196.601 56.7957 196.721 56.8554 196.85 56.8742C196.979 56.893 197.111 56.8701 197.226 56.8086C197.34 56.7559 197.433 56.6659 197.49 56.5532C197.547 56.4371 197.566 56.306 197.545 56.1784C197.524 56.0507 197.463 55.9329 197.372 55.8415C197.28 55.75 197.163 55.6894 197.035 55.6682C196.907 55.647 196.776 55.6662 196.66 55.7232C196.541 55.774 196.447 55.8687 196.396 55.9877V55.9877Z" fill="white"/>
<path d="M248.184 44.7778C248.124 44.8935 248.102 45.0255 248.123 45.1544C248.143 45.2833 248.204 45.4023 248.297 45.494C248.389 45.5858 248.509 45.6454 248.638 45.6643C248.767 45.6831 248.899 45.6601 249.014 45.5987C249.13 45.5486 249.224 45.4578 249.278 45.3433C249.335 45.2271 249.354 45.0961 249.333 44.9684C249.312 44.8408 249.251 44.723 249.16 44.6315C249.068 44.54 248.951 44.4794 248.823 44.4582C248.696 44.437 248.565 44.4562 248.448 44.5132C248.33 44.564 248.235 44.6588 248.184 44.7778V44.7778Z" fill="white"/>
<path d="M274.206 43.975C274.146 44.0907 274.124 44.2227 274.144 44.3516C274.165 44.4805 274.226 44.5995 274.318 44.6912C274.411 44.783 274.531 44.8426 274.66 44.8615C274.789 44.8803 274.92 44.8573 275.036 44.7959C275.149 44.7454 275.24 44.6544 275.291 44.5405C275.352 44.4254 275.375 44.2936 275.356 44.1645C275.338 44.0354 275.278 43.9158 275.186 43.823C275.095 43.7302 274.976 43.6693 274.847 43.649C274.718 43.6288 274.586 43.6503 274.47 43.7104C274.411 43.7343 274.356 43.77 274.311 43.8155C274.265 43.861 274.23 43.9152 274.206 43.975V43.975Z" fill="white"/>
<path d="M315.691 65.3187C315.634 65.4348 315.615 65.5659 315.636 65.6935C315.657 65.8212 315.718 65.939 315.809 66.0305C315.901 66.122 316.018 66.1825 316.146 66.2037C316.274 66.2249 316.405 66.2057 316.521 66.1487C316.638 66.0957 316.732 66.0017 316.785 65.8842C316.834 65.8116 316.867 65.7295 316.882 65.6432C316.897 65.557 316.894 65.4685 316.872 65.3837C316.85 65.2988 316.811 65.2195 316.757 65.151C316.702 65.0825 316.634 65.0263 316.556 64.9861C316.478 64.9459 316.393 64.9226 316.305 64.9178C316.218 64.913 316.131 64.9268 316.049 64.9582C315.967 64.9896 315.893 65.038 315.831 65.1001C315.77 65.1622 315.722 65.2367 315.691 65.3187V65.3187Z" fill="white"/>
<path d="M285.612 102.953C285.555 103.069 285.536 103.2 285.557 103.328C285.578 103.456 285.639 103.574 285.73 103.665C285.822 103.756 285.939 103.817 286.067 103.838C286.195 103.859 286.326 103.84 286.442 103.783C286.554 103.727 286.644 103.633 286.697 103.519C286.758 103.404 286.781 103.272 286.763 103.143C286.744 103.014 286.684 102.894 286.592 102.801C286.501 102.709 286.382 102.648 286.253 102.627C286.124 102.607 285.992 102.629 285.876 102.689C285.817 102.713 285.762 102.748 285.717 102.794C285.672 102.839 285.636 102.894 285.612 102.953V102.953Z" fill="white"/>
<path d="M290.162 107.477C290.105 107.594 290.086 107.725 290.107 107.852C290.128 107.98 290.189 108.098 290.28 108.189C290.371 108.281 290.489 108.341 290.617 108.363C290.744 108.384 290.875 108.364 290.991 108.307C291.107 108.251 291.2 108.158 291.256 108.043C291.313 107.927 291.332 107.796 291.311 107.668C291.29 107.54 291.229 107.423 291.138 107.331C291.046 107.24 290.928 107.179 290.801 107.158C290.673 107.137 290.542 107.156 290.426 107.213C290.309 107.266 290.215 107.36 290.162 107.477V107.477Z" fill="white"/>
<path d="M375.886 104.166C375.829 104.282 375.81 104.414 375.831 104.541C375.852 104.669 375.913 104.787 376.004 104.878C376.095 104.97 376.213 105.03 376.341 105.051C376.468 105.073 376.599 105.053 376.715 104.996C376.833 104.943 376.927 104.849 376.98 104.732C377.037 104.616 377.056 104.485 377.035 104.357C377.014 104.229 376.953 104.112 376.862 104.02C376.77 103.929 376.652 103.868 376.525 103.847C376.397 103.826 376.266 103.845 376.15 103.902C376.035 103.958 375.942 104.051 375.886 104.166Z" fill="white"/>
<path d="M396.382 113.917C396.325 114.033 396.306 114.164 396.327 114.292C396.349 114.42 396.409 114.537 396.501 114.629C396.592 114.72 396.71 114.781 396.837 114.802C396.965 114.823 397.096 114.804 397.212 114.747C397.327 114.691 397.42 114.598 397.476 114.483C397.533 114.366 397.553 114.235 397.531 114.108C397.51 113.98 397.45 113.862 397.358 113.771C397.267 113.679 397.149 113.619 397.021 113.597C396.894 113.576 396.763 113.596 396.647 113.653C396.532 113.709 396.439 113.802 396.382 113.917V113.917Z" fill="white"/>
<path d="M322.529 105.279C322.461 105.411 322.442 105.562 322.476 105.706C322.51 105.851 322.594 105.978 322.713 106.065C322.833 106.153 322.979 106.195 323.127 106.184C323.275 106.172 323.413 106.108 323.518 106.004C323.623 105.899 323.686 105.76 323.698 105.613C323.709 105.465 323.667 105.318 323.58 105.199C323.492 105.079 323.365 104.995 323.221 104.961C323.077 104.927 322.925 104.946 322.794 105.015C322.675 105.065 322.58 105.16 322.529 105.279V105.279Z" fill="white"/>
<path d="M258.514 101.923C258.457 102.039 258.438 102.17 258.459 102.297C258.481 102.425 258.541 102.543 258.633 102.634C258.724 102.726 258.842 102.786 258.969 102.808C259.097 102.829 259.228 102.81 259.344 102.753C259.459 102.696 259.552 102.603 259.608 102.488C259.665 102.372 259.685 102.241 259.663 102.113C259.642 101.986 259.582 101.868 259.49 101.776C259.399 101.685 259.281 101.624 259.153 101.603C259.026 101.582 258.895 101.601 258.779 101.658C258.661 101.711 258.567 101.805 258.514 101.923V101.923Z" fill="white"/>
<path d="M462.54 68.7027C462.483 68.8189 462.464 68.9499 462.485 69.0776C462.506 69.2052 462.567 69.323 462.658 69.4145C462.75 69.506 462.867 69.5666 462.995 69.5878C463.123 69.609 463.254 69.5897 463.37 69.5328C463.487 69.4797 463.581 69.3857 463.634 69.2682C463.683 69.1957 463.716 69.1135 463.731 69.0273C463.746 68.941 463.743 68.8525 463.721 68.7677C463.699 68.6829 463.66 68.6036 463.605 68.535C463.551 68.4665 463.483 68.4103 463.405 68.3701C463.327 68.3299 463.242 68.3066 463.154 68.3018C463.067 68.297 462.98 68.3108 462.898 68.3422C462.816 68.3736 462.742 68.422 462.68 68.4841C462.619 68.5463 462.571 68.6208 462.54 68.7027V68.7027Z" fill="white"/>
<path d="M433.5 83.3606C433.443 83.4768 433.424 83.6079 433.445 83.7355C433.466 83.8631 433.527 83.9809 433.618 84.0724C433.71 84.1639 433.828 84.2245 433.955 84.2457C434.083 84.2669 434.214 84.2477 434.33 84.1907C434.445 84.1345 434.538 84.0414 434.594 83.9262C434.651 83.81 434.671 83.6789 434.649 83.5513C434.628 83.4237 434.568 83.3059 434.476 83.2144C434.385 83.1229 434.267 83.0623 434.139 83.0411C434.012 83.0199 433.881 83.0391 433.765 83.0961C433.647 83.1491 433.553 83.2432 433.5 83.3606V83.3606Z" fill="white"/>
<path d="M480.055 120.895C479.998 121.011 479.979 121.142 480 121.27C480.021 121.397 480.082 121.515 480.173 121.607C480.265 121.698 480.382 121.759 480.51 121.78C480.638 121.801 480.769 121.782 480.885 121.725C481.002 121.672 481.096 121.578 481.149 121.46C481.203 121.318 481.202 121.161 481.147 121.019C481.093 120.878 480.988 120.761 480.853 120.691C480.718 120.621 480.563 120.603 480.415 120.641C480.268 120.679 480.14 120.769 480.055 120.895V120.895Z" fill="white"/>
<path d="M500.223 75.0787C500.166 75.1948 500.147 75.3259 500.168 75.4535C500.189 75.5812 500.25 75.699 500.341 75.7904C500.433 75.8819 500.551 75.9425 500.678 75.9637C500.806 75.9849 500.937 75.9657 501.053 75.9087C501.167 75.8546 501.258 75.7605 501.308 75.6442C501.365 75.528 501.384 75.397 501.363 75.2693C501.342 75.1417 501.281 75.0239 501.19 74.9324C501.099 74.8409 500.981 74.7803 500.853 74.7591C500.726 74.7379 500.595 74.7572 500.478 74.8141C500.364 74.8683 500.273 74.9623 500.223 75.0787V75.0787Z" fill="white"/>
<path d="M472.168 115.878C472.111 115.994 472.092 116.125 472.113 116.253C472.134 116.381 472.195 116.498 472.286 116.59C472.378 116.681 472.496 116.742 472.623 116.763C472.751 116.784 472.882 116.765 472.998 116.708C473.113 116.652 473.206 116.559 473.262 116.444C473.319 116.327 473.338 116.196 473.317 116.069C473.296 115.941 473.236 115.823 473.144 115.732C473.053 115.64 472.935 115.58 472.807 115.559C472.68 115.537 472.549 115.557 472.433 115.614C472.315 115.667 472.221 115.761 472.168 115.878V115.878Z" fill="white"/>
<path d="M455.647 114.82C455.59 114.936 455.571 115.067 455.592 115.195C455.613 115.323 455.674 115.44 455.765 115.532C455.857 115.623 455.974 115.684 456.102 115.705C456.23 115.726 456.361 115.707 456.477 115.65C456.591 115.596 456.682 115.502 456.732 115.386C456.793 115.27 456.816 115.139 456.798 115.01C456.779 114.881 456.719 114.761 456.627 114.668C456.536 114.575 456.417 114.514 456.288 114.494C456.159 114.474 456.027 114.495 455.911 114.556C455.792 114.606 455.698 114.701 455.647 114.82V114.82Z" fill="white"/>
<path d="M512.468 61.5061C512.405 61.6221 512.38 61.7557 512.399 61.8867C512.417 62.0178 512.478 62.1393 512.572 62.2329C512.665 62.3265 512.787 62.3871 512.918 62.4058C513.049 62.4244 513.182 62.4 513.298 62.3362C513.412 62.2857 513.503 62.1946 513.553 62.0808C513.615 61.9657 513.638 61.8339 513.619 61.7048C513.6 61.5757 513.54 61.456 513.449 61.3633C513.357 61.2705 513.238 61.2095 513.109 61.1893C512.98 61.169 512.848 61.1906 512.733 61.2507C512.614 61.2977 512.519 61.3895 512.468 61.5061V61.5061Z" fill="white"/>
<path d="M509.441 76.9941C509.384 77.1102 509.365 77.2413 509.386 77.3689C509.407 77.4966 509.468 77.6144 509.559 77.7058C509.651 77.7973 509.768 77.8579 509.896 77.8791C510.024 77.9003 510.155 77.8811 510.271 77.8241C510.386 77.7679 510.479 77.6748 510.535 77.5596C510.592 77.4434 510.611 77.3124 510.59 77.1847C510.569 77.0571 510.508 76.9393 510.417 76.8478C510.325 76.7563 510.208 76.6957 510.08 76.6745C509.953 76.6533 509.822 76.6726 509.705 76.7295C509.59 76.7858 509.497 76.8789 509.441 76.9941V76.9941Z" fill="white"/>
<path d="M524.202 118.031C524.145 118.147 524.126 118.278 524.147 118.406C524.169 118.533 524.229 118.651 524.321 118.742C524.412 118.834 524.53 118.895 524.657 118.916C524.785 118.937 524.916 118.918 525.032 118.861C525.15 118.808 525.244 118.714 525.297 118.596C525.354 118.48 525.373 118.349 525.352 118.221C525.33 118.094 525.27 117.976 525.178 117.884C525.087 117.793 524.969 117.732 524.842 117.711C524.714 117.69 524.583 117.709 524.467 117.766C524.352 117.822 524.259 117.915 524.202 118.031V118.031Z" fill="white"/>
<path d="M533.785 107.733C533.728 107.849 533.709 107.98 533.73 108.108C533.751 108.235 533.812 108.353 533.903 108.445C533.995 108.536 534.113 108.597 534.24 108.618C534.368 108.639 534.499 108.62 534.615 108.563C534.732 108.51 534.826 108.416 534.879 108.298C534.933 108.156 534.932 107.999 534.878 107.857C534.823 107.715 534.719 107.599 534.584 107.529C534.449 107.459 534.293 107.441 534.146 107.479C533.998 107.516 533.87 107.607 533.785 107.733V107.733Z" fill="white"/>
<path d="M500.743 42.552C500.686 42.6682 500.667 42.7993 500.688 42.9269C500.709 43.0545 500.77 43.1723 500.861 43.2638C500.953 43.3553 501.07 43.4159 501.198 43.4371C501.325 43.4583 501.456 43.4391 501.573 43.3821C501.688 43.3259 501.781 43.2328 501.837 43.1176C501.894 43.0014 501.913 42.8703 501.892 42.7427C501.871 42.6151 501.81 42.4973 501.719 42.4058C501.627 42.3143 501.51 42.2537 501.382 42.2325C501.254 42.2113 501.123 42.2305 501.007 42.2875C500.892 42.3437 500.799 42.4368 500.743 42.552V42.552Z" fill="white"/>
<path d="M533.266 79.703C533.205 79.8188 533.184 79.9508 533.204 80.0797C533.224 80.2086 533.285 80.3276 533.378 80.4193C533.471 80.5111 533.59 80.5707 533.719 80.5896C533.849 80.6084 533.98 80.5854 534.095 80.524C534.212 80.4739 534.306 80.3831 534.36 80.2686C534.417 80.1524 534.436 80.0214 534.415 79.8937C534.394 79.7661 534.333 79.6483 534.241 79.5568C534.15 79.4653 534.032 79.4047 533.905 79.3835C533.777 79.3623 533.646 79.3815 533.53 79.4385C533.413 79.4916 533.319 79.5856 533.266 79.703V79.703Z" fill="white"/>
<path d="M478.587 64.9631C478.53 65.0792 478.511 65.2103 478.532 65.3379C478.553 65.4655 478.614 65.5833 478.705 65.6748C478.797 65.7663 478.914 65.8269 479.042 65.8481C479.17 65.8693 479.301 65.8501 479.417 65.7931C479.532 65.7369 479.625 65.6438 479.681 65.5286C479.738 65.4124 479.757 65.2813 479.736 65.1537C479.715 65.0261 479.654 64.9083 479.563 64.8168C479.471 64.7253 479.354 64.6647 479.226 64.6435C479.099 64.6223 478.968 64.6415 478.851 64.6985C478.736 64.7547 478.643 64.8478 478.587 64.9631V64.9631Z" fill="white"/>
<path d="M379.56 43.3639C379.492 43.4953 379.473 43.6468 379.507 43.791C379.54 43.9352 379.625 44.0626 379.744 44.1501C379.863 44.2377 380.01 44.2796 380.158 44.2682C380.305 44.2569 380.444 44.1931 380.549 44.0884C380.654 43.9836 380.717 43.8449 380.729 43.6972C380.74 43.5496 380.698 43.4027 380.611 43.2833C380.523 43.1638 380.396 43.0796 380.252 43.0458C380.107 43.0121 379.956 43.0311 379.825 43.0994C379.707 43.1524 379.613 43.2464 379.56 43.3639V43.3639Z" fill="white"/>
<path d="M386.353 58.2863C386.296 58.4025 386.277 58.5335 386.298 58.6612C386.319 58.7888 386.38 58.9066 386.471 58.9981C386.563 59.0896 386.68 59.1502 386.808 59.1714C386.936 59.1926 387.067 59.1733 387.183 59.1163C387.298 59.0601 387.391 58.967 387.447 58.8518C387.504 58.7357 387.523 58.6046 387.502 58.477C387.481 58.3493 387.42 58.2315 387.329 58.14C387.237 58.0486 387.12 57.988 386.992 57.9668C386.865 57.9456 386.734 57.9648 386.617 58.0218C386.5 58.0748 386.406 58.1689 386.353 58.2863Z" fill="white"/>
<path d="M367.598 103.665C367.53 103.796 367.511 103.948 367.544 104.092C367.578 104.236 367.662 104.363 367.782 104.451C367.901 104.538 368.048 104.58 368.196 104.569C368.343 104.558 368.482 104.494 368.587 104.389C368.691 104.284 368.755 104.146 368.766 103.998C368.778 103.85 368.736 103.704 368.648 103.584C368.561 103.465 368.433 103.38 368.289 103.347C368.145 103.313 367.994 103.332 367.862 103.4C367.745 103.453 367.651 103.547 367.598 103.665V103.665Z" fill="white"/>
<path d="M386.408 85.559C386.339 85.6904 386.32 85.8419 386.354 85.9861C386.388 86.1303 386.472 86.2577 386.591 86.3452C386.711 86.4327 386.858 86.4746 387.005 86.4633C387.153 86.452 387.291 86.3882 387.396 86.2834C387.501 86.1787 387.565 86.04 387.576 85.8923C387.587 85.7446 387.545 85.5978 387.458 85.4783C387.37 85.3588 387.243 85.2746 387.099 85.2409C386.955 85.2072 386.803 85.2262 386.672 85.2944C386.553 85.3452 386.458 85.44 386.408 85.559V85.559Z" fill="white"/>
<path d="M366.641 67.8454C366.584 67.9615 366.564 68.0926 366.586 68.2202C366.607 68.3479 366.667 68.4657 366.759 68.5572C366.85 68.6486 366.968 68.7092 367.096 68.7304C367.223 68.7516 367.354 68.7324 367.47 68.6754C367.588 68.6224 367.682 68.5283 367.735 68.4109C367.792 68.2947 367.811 68.1637 367.79 68.0361C367.769 67.9084 367.708 67.7906 367.617 67.6991C367.525 67.6076 367.407 67.547 367.28 67.5258C367.152 67.5046 367.021 67.5239 366.905 67.5809C366.79 67.6371 366.697 67.7302 366.641 67.8454V67.8454Z" fill="white"/>
<path d="M270.559 46.2644C270.502 46.3805 270.483 46.5116 270.504 46.6392C270.525 46.7669 270.585 46.8847 270.677 46.9762C270.768 47.0677 270.886 47.1282 271.014 47.1494C271.141 47.1706 271.272 47.1514 271.388 47.0944C271.506 47.0414 271.6 46.9473 271.653 46.8299C271.706 46.6877 271.706 46.5308 271.651 46.3889C271.597 46.2471 271.492 46.1302 271.357 46.0604C271.222 45.9907 271.066 45.9729 270.919 46.0105C270.772 46.0481 270.644 46.1384 270.559 46.2644V46.2644Z" fill="white"/>
<path d="M319.302 73.0902C319.245 73.2063 319.225 73.3374 319.247 73.465C319.268 73.5927 319.328 73.7105 319.42 73.802C319.511 73.8935 319.629 73.954 319.757 73.9752C319.884 73.9965 320.015 73.9772 320.131 73.9202C320.25 73.8695 320.345 73.7747 320.396 73.6557C320.449 73.5135 320.449 73.3566 320.394 73.2147C320.34 73.0729 320.235 72.956 320.1 72.8862C319.965 72.8165 319.809 72.7987 319.662 72.8363C319.515 72.8739 319.387 72.9642 319.302 73.0902V73.0902Z" fill="white"/>
<path d="M225.527 89.3534C225.47 89.4695 225.451 89.6006 225.472 89.7282C225.493 89.8559 225.553 89.9737 225.645 90.0651C225.736 90.1566 225.854 90.2172 225.982 90.2384C226.109 90.2596 226.24 90.2404 226.356 90.1834C226.474 90.1304 226.568 90.0363 226.621 89.9189C226.674 89.7767 226.674 89.6197 226.619 89.4779C226.565 89.336 226.46 89.2192 226.325 89.1494C226.19 89.0797 226.034 89.0619 225.887 89.0995C225.74 89.1371 225.612 89.2274 225.527 89.3534V89.3534Z" fill="white"/>
<path d="M147.471 112.138C147.414 112.255 147.394 112.386 147.416 112.513C147.437 112.641 147.497 112.759 147.589 112.85C147.68 112.942 147.798 113.002 147.926 113.024C148.053 113.045 148.184 113.025 148.3 112.969C148.419 112.918 148.514 112.823 148.565 112.704C148.622 112.588 148.641 112.457 148.62 112.329C148.599 112.202 148.538 112.084 148.447 111.992C148.355 111.901 148.237 111.84 148.11 111.819C147.982 111.798 147.851 111.817 147.735 111.874C147.62 111.93 147.527 112.023 147.471 112.138V112.138Z" fill="white"/>
<path d="M198.73 45.0058C198.673 45.1219 198.654 45.253 198.675 45.3806C198.696 45.5083 198.757 45.6261 198.848 45.7176C198.94 45.809 199.057 45.8696 199.185 45.8908C199.313 45.912 199.444 45.8928 199.56 45.8358C199.675 45.7796 199.768 45.6865 199.824 45.5713C199.881 45.4551 199.9 45.3241 199.879 45.1964C199.858 45.0688 199.797 44.951 199.706 44.8595C199.614 44.768 199.497 44.7075 199.369 44.6862C199.242 44.665 199.111 44.6843 198.994 44.7413C198.879 44.7975 198.786 44.8906 198.73 45.0058Z" fill="white"/>
<path d="M159.685 89.6077C159.91 89.3833 159.895 89.005 159.653 88.7628C159.411 88.5206 159.033 88.5061 158.809 88.7305C158.584 88.955 158.599 89.3332 158.841 89.5754C159.083 89.8176 159.461 89.8321 159.685 89.6077Z" fill="white"/>
<path d="M168.56 100.664C168.503 100.78 168.484 100.911 168.505 101.039C168.526 101.166 168.586 101.284 168.678 101.376C168.769 101.467 168.887 101.528 169.015 101.549C169.142 101.57 169.273 101.551 169.389 101.494C169.505 101.438 169.598 101.344 169.654 101.229C169.711 101.113 169.73 100.982 169.709 100.854C169.688 100.727 169.627 100.609 169.536 100.517C169.444 100.426 169.326 100.365 169.199 100.344C169.071 100.323 168.94 100.342 168.824 100.399C168.709 100.455 168.616 100.549 168.56 100.664Z" fill="white"/>
<path d="M182.893 115.34C182.832 115.456 182.811 115.588 182.831 115.717C182.851 115.845 182.912 115.964 183.005 116.056C183.098 116.148 183.217 116.208 183.346 116.226C183.476 116.245 183.607 116.222 183.722 116.161C183.837 116.108 183.93 116.018 183.987 115.905C184.044 115.789 184.063 115.658 184.042 115.531C184.021 115.403 183.96 115.285 183.868 115.194C183.777 115.102 183.659 115.042 183.532 115.02C183.404 114.999 183.273 115.018 183.157 115.075C183.038 115.126 182.943 115.221 182.893 115.34V115.34Z" fill="white"/>
<path d="M195.356 78.0794C195.299 78.1955 195.28 78.3266 195.301 78.4542C195.323 78.5819 195.383 78.6997 195.475 78.7912C195.566 78.8827 195.684 78.9432 195.811 78.9644C195.939 78.9857 196.07 78.9664 196.186 78.9094C196.301 78.8532 196.394 78.7601 196.45 78.6449C196.507 78.5288 196.527 78.3977 196.505 78.2701C196.484 78.1424 196.424 78.0246 196.332 77.9331C196.241 77.8416 196.123 77.7811 195.995 77.7599C195.868 77.7386 195.737 77.7579 195.621 77.8149C195.506 77.8711 195.413 77.9642 195.356 78.0794Z" fill="white"/>
<path d="M84.6408 50.7886C84.5838 50.9048 84.5646 51.0358 84.5858 51.1635C84.607 51.2911 84.6676 51.4089 84.759 51.5004C84.8505 51.5919 84.9682 51.6525 85.0958 51.6737C85.2234 51.6949 85.3544 51.6757 85.4705 51.6187C85.5856 51.5625 85.6787 51.4694 85.7349 51.3541C85.7918 51.238 85.8111 51.1069 85.7899 50.9793C85.7687 50.8517 85.7081 50.7339 85.6167 50.6424C85.5252 50.5509 85.4075 50.4903 85.2799 50.4691C85.1523 50.4479 85.0213 50.4671 84.9052 50.5241C84.7878 50.5771 84.6938 50.6712 84.6408 50.7886V50.7886Z" fill="white"/>
<path d="M87.5129 54.9023C87.4515 55.0174 87.4285 55.1492 87.4473 55.2783C87.4661 55.4074 87.5258 55.5271 87.6175 55.6198C87.7092 55.7126 87.8281 55.7735 87.957 55.7938C88.0858 55.814 88.2178 55.7925 88.3335 55.7324C88.3932 55.7085 88.4474 55.6728 88.4929 55.6273C88.5383 55.5818 88.574 55.5276 88.5979 55.4678C88.658 55.3521 88.6795 55.2201 88.6593 55.0912C88.639 54.9623 88.5781 54.8433 88.4854 54.7516C88.3926 54.6598 88.273 54.6002 88.1439 54.5813C88.0149 54.5625 87.8832 54.5855 87.7682 54.6469C87.6543 54.6974 87.5633 54.7884 87.5129 54.9023V54.9023Z" fill="white"/>
<path d="M44.8423 113.707C44.7854 113.823 44.7661 113.954 44.7873 114.082C44.8085 114.21 44.8691 114.328 44.9605 114.419C45.052 114.51 45.1697 114.571 45.2973 114.592C45.4249 114.613 45.5559 114.594 45.672 114.537C45.7872 114.481 45.8803 114.388 45.9364 114.273C45.9934 114.157 46.0126 114.026 45.9914 113.898C45.9702 113.77 45.9097 113.652 45.8182 113.561C45.7268 113.469 45.609 113.409 45.4814 113.388C45.3538 113.366 45.2228 113.386 45.1067 113.443C44.9916 113.499 44.8985 113.592 44.8423 113.707Z" fill="white"/>
<path d="M92.3362 116.243C92.2748 116.358 92.2517 116.49 92.2705 116.619C92.2894 116.748 92.349 116.868 92.4407 116.96C92.5324 117.053 92.6514 117.114 92.7802 117.134C92.9091 117.155 93.041 117.133 93.1567 117.073C93.2741 117.02 93.3681 116.926 93.4211 116.808C93.4781 116.692 93.4973 116.561 93.4761 116.434C93.4549 116.306 93.3943 116.188 93.3029 116.097C93.2114 116.005 93.0937 115.945 92.9661 115.923C92.8385 115.902 92.7075 115.921 92.5914 115.978C92.477 116.033 92.3862 116.127 92.3362 116.243Z" fill="white"/>
<path d="M94.6059 88.1527C94.8302 87.9283 94.8158 87.55 94.5736 87.3078C94.3315 87.0656 93.9534 87.0511 93.7291 87.2755C93.5047 87.5 93.5192 87.8782 93.7613 88.1205C94.0034 88.3627 94.3815 88.3771 94.6059 88.1527Z" fill="white"/>
<path d="M29.5247 114.264C29.4677 114.38 29.4485 114.511 29.4697 114.638C29.4909 114.766 29.5514 114.884 29.6429 114.975C29.7343 115.067 29.8521 115.127 29.9797 115.149C30.1073 115.17 30.2383 115.151 30.3544 115.094C30.4718 115.041 30.5658 114.947 30.6188 114.829C30.6758 114.713 30.695 114.582 30.6738 114.454C30.6526 114.327 30.592 114.209 30.5006 114.117C30.4091 114.026 30.2914 113.965 30.1638 113.944C30.0362 113.923 29.9052 113.942 29.7891 113.999C29.6739 114.055 29.5809 114.148 29.5247 114.264Z" fill="white"/>
<path d="M9.42936 73.1083C9.37239 73.2245 9.35315 73.3555 9.37435 73.4832C9.39555 73.6108 9.45611 73.7286 9.54756 73.8201C9.63901 73.9116 9.75677 73.9722 9.88435 73.9934C10.0119 74.0146 10.143 73.9953 10.2591 73.9384C10.3765 73.8853 10.4705 73.7913 10.5235 73.6738C10.5804 73.5577 10.5997 73.4266 10.5785 73.299C10.5573 73.1714 10.4967 73.0535 10.4053 72.9621C10.3138 72.8706 10.1961 72.81 10.0685 72.7888C9.94089 72.7676 9.80989 72.7868 9.69378 72.8438C9.57862 72.9 9.48554 72.9931 9.42936 73.1083V73.1083Z" fill="white"/>
<g style="mix-blend-mode:color-dodge" opacity="0.28">
<g style="mix-blend-mode:color-dodge" opacity="0.28">
<path d="M75.9244 58.1495C75.9814 58.2656 76.0006 58.3967 75.9794 58.5243C75.9582 58.6519 75.8976 58.7698 75.8061 58.8612C75.7147 58.9527 75.5969 59.0133 75.4693 59.0345C75.3418 59.0557 75.2108 59.0365 75.0947 58.9795C74.9773 58.9265 74.8833 58.8324 74.8303 58.715C74.7733 58.5988 74.754 58.4678 74.7752 58.3401C74.7964 58.2125 74.857 58.0947 74.9485 58.0032C75.0399 57.9117 75.1577 57.8511 75.2853 57.8299C75.4128 57.8087 75.5438 57.828 75.6599 57.8849C75.7751 57.9411 75.8682 58.0343 75.9244 58.1495V58.1495Z" fill="white"/>
</g>
<g style="mix-blend-mode:color-dodge" opacity="0.28">
<path d="M95.0896 69.8157C95.1466 69.9319 95.1658 70.0629 95.1446 70.1906C95.1234 70.3182 95.0629 70.436 94.9714 70.5275C94.88 70.619 94.7622 70.6796 94.6346 70.7008C94.507 70.722 94.376 70.7027 94.2599 70.6458C94.1425 70.5927 94.0485 70.4987 93.9955 70.3812C93.9385 70.2651 93.9193 70.134 93.9405 70.0064C93.9617 69.8787 94.0223 69.7609 94.1137 69.6695C94.2052 69.578 94.323 69.5174 94.4505 69.4962C94.5781 69.475 94.7091 69.4942 94.8252 69.5512C94.9404 69.6074 95.0334 69.7005 95.0896 69.8157V69.8157Z" fill="white"/>
</g>
<g style="mix-blend-mode:color-dodge" opacity="0.28">
<path d="M98.1531 56.7631C98.2101 56.8793 98.2293 57.0103 98.2081 57.138C98.1869 57.2656 98.1264 57.3834 98.0349 57.4749C97.9435 57.5664 97.8257 57.627 97.6981 57.6482C97.5705 57.6694 97.4395 57.6501 97.3234 57.5931C97.2083 57.5369 97.1152 57.4438 97.059 57.3286C97.0021 57.2125 96.9828 57.0814 97.004 56.9538C97.0252 56.8261 97.0858 56.7083 97.1772 56.6168C97.2687 56.5254 97.3864 56.4648 97.514 56.4436C97.6416 56.4224 97.7726 56.4416 97.8887 56.4986C98.0061 56.5516 98.1001 56.6457 98.1531 56.7631V56.7631Z" fill="white"/>
</g>
<g style="mix-blend-mode:color-dodge" opacity="0.28">
<path d="M196.596 85.267C196.656 85.3828 196.678 85.5148 196.658 85.6437C196.637 85.7725 196.576 85.8916 196.484 85.9833C196.391 86.075 196.271 86.1347 196.142 86.1535C196.013 86.1723 195.882 86.1494 195.766 86.0879C195.652 86.0352 195.559 85.9452 195.502 85.8325C195.445 85.7164 195.426 85.5853 195.447 85.4577C195.468 85.33 195.529 85.2122 195.62 85.1208C195.712 85.0293 195.829 84.9687 195.957 84.9475C196.085 84.9263 196.216 84.9455 196.332 85.0025C196.451 85.0533 196.545 85.148 196.596 85.267V85.267Z" fill="white"/>
</g>
<g style="mix-blend-mode:color-dodge" opacity="0.28">
<path d="M141.088 110.798C141.156 110.929 141.175 111.081 141.142 111.225C141.108 111.369 141.024 111.496 140.904 111.584C140.785 111.671 140.638 111.713 140.49 111.702C140.343 111.691 140.204 111.627 140.099 111.522C139.995 111.417 139.931 111.279 139.92 111.131C139.908 110.983 139.95 110.836 140.038 110.717C140.125 110.598 140.252 110.513 140.397 110.48C140.541 110.446 140.692 110.465 140.824 110.533C140.941 110.586 141.035 110.68 141.088 110.798V110.798Z" fill="white"/>
</g>
<g style="mix-blend-mode:color-dodge" opacity="0.28">
<path d="M304.294 67.4168C304.354 67.5326 304.376 67.6646 304.355 67.7934C304.335 67.9223 304.274 68.0413 304.181 68.1331C304.089 68.2248 303.969 68.2845 303.84 68.3033C303.711 68.3221 303.579 68.2991 303.464 68.2377C303.348 68.1876 303.254 68.0968 303.2 67.9823C303.143 67.8662 303.124 67.7351 303.145 67.6075C303.166 67.4798 303.227 67.362 303.318 67.2705C303.41 67.179 303.527 67.1185 303.655 67.0973C303.782 67.076 303.913 67.0953 304.03 67.1523C304.147 67.2053 304.241 67.2994 304.294 67.4168V67.4168Z" fill="white"/>
</g>
<g style="mix-blend-mode:color-dodge" opacity="0.28">
<path d="M409.712 59.7821C409.769 59.8983 409.788 60.0294 409.767 60.157C409.746 60.2846 409.685 60.4024 409.594 60.4939C409.503 60.5854 409.385 60.646 409.257 60.6672C409.13 60.6884 408.999 60.6692 408.883 60.6122C408.767 60.556 408.674 60.4629 408.618 60.3477C408.561 60.2315 408.542 60.1004 408.563 59.9728C408.584 59.8452 408.645 59.7274 408.736 59.6359C408.828 59.5444 408.945 59.4838 409.073 59.4626C409.201 59.4414 409.332 59.4606 409.448 59.5176C409.563 59.5738 409.656 59.6669 409.712 59.7821V59.7821Z" fill="white"/>
</g>
<g style="mix-blend-mode:color-dodge" opacity="0.28">
<path d="M473.654 78.6268C473.711 78.7429 473.731 78.874 473.709 79.0016C473.688 79.1293 473.628 79.2471 473.536 79.3386C473.445 79.4301 473.327 79.4906 473.199 79.5119C473.072 79.5331 472.941 79.5138 472.825 79.4568C472.706 79.4061 472.611 79.3113 472.56 79.1923C472.511 79.1197 472.478 79.0376 472.463 78.9513C472.448 78.8651 472.452 78.7766 472.473 78.6918C472.495 78.6069 472.534 78.5276 472.589 78.4591C472.643 78.3906 472.712 78.3344 472.79 78.2942C472.867 78.254 472.953 78.2307 473.04 78.2259C473.127 78.2211 473.215 78.2349 473.297 78.2663C473.378 78.2977 473.452 78.3461 473.514 78.4082C473.576 78.4703 473.624 78.5448 473.654 78.6268V78.6268Z" fill="white"/>
</g>
<g style="mix-blend-mode:color-dodge" opacity="0.28">
<path d="M471.895 107.158C471.952 107.274 471.971 107.405 471.95 107.533C471.928 107.661 471.868 107.778 471.776 107.87C471.685 107.961 471.567 108.022 471.44 108.043C471.312 108.064 471.181 108.045 471.065 107.988C470.952 107.932 470.862 107.838 470.81 107.724C470.748 107.609 470.725 107.477 470.744 107.348C470.763 107.219 470.822 107.099 470.914 107.006C471.006 106.913 471.125 106.852 471.254 106.832C471.382 106.812 471.514 106.834 471.63 106.894C471.749 106.944 471.844 107.039 471.895 107.158V107.158Z" fill="white"/>
</g>
<g style="mix-blend-mode:color-dodge" opacity="0.28">
<path d="M490.96 105.845C491.017 105.961 491.036 106.092 491.015 106.22C490.993 106.347 490.933 106.465 490.841 106.556C490.75 106.648 490.632 106.709 490.505 106.73C490.377 106.751 490.246 106.732 490.13 106.675C490.013 106.622 489.919 106.528 489.866 106.41C489.812 106.268 489.813 106.111 489.867 105.969C489.922 105.827 490.026 105.71 490.161 105.641C490.296 105.571 490.452 105.553 490.599 105.591C490.746 105.628 490.875 105.719 490.96 105.845V105.845Z" fill="white"/>
</g>
<g style="mix-blend-mode:color-dodge" opacity="0.28">
<path d="M490.816 98.8067C491.058 98.5645 491.073 98.1862 490.849 97.9618C490.624 97.7374 490.246 97.7518 490.004 97.994C489.762 98.2363 489.747 98.6145 489.972 98.8389C490.196 99.0634 490.574 99.0489 490.816 98.8067Z" fill="white"/>
</g>
<g style="mix-blend-mode:color-dodge" opacity="0.28">
<path d="M501.189 55.8789C501.431 55.6366 501.445 55.2584 501.221 55.0339C500.997 54.8095 500.619 54.824 500.376 55.0662C500.134 55.3084 500.12 55.6867 500.344 55.9111C500.569 56.1355 500.947 56.1211 501.189 55.8789Z" fill="white"/>
</g>
<g style="mix-blend-mode:color-dodge" opacity="0.28">
<path d="M525.196 46.9303C525.253 47.0464 525.273 47.1775 525.251 47.3051C525.23 47.4328 525.17 47.5506 525.078 47.6421C524.987 47.7335 524.869 47.7941 524.741 47.8153C524.614 47.8365 524.483 47.8173 524.367 47.7603C524.254 47.7036 524.164 47.6104 524.111 47.4958C524.05 47.3807 524.027 47.249 524.046 47.1199C524.065 46.9908 524.124 46.8711 524.216 46.7783C524.308 46.6856 524.427 46.6246 524.555 46.6043C524.684 46.5841 524.816 46.6056 524.932 46.6658C524.992 46.6896 525.046 46.7254 525.091 46.7708C525.137 46.8163 525.172 46.8706 525.196 46.9303V46.9303Z" fill="white"/>
</g>
<g style="mix-blend-mode:color-dodge" opacity="0.28">
<path d="M455.692 54.054C455.749 54.1702 455.769 54.3012 455.748 54.4289C455.726 54.5565 455.666 54.6743 455.574 54.7658C455.483 54.8573 455.365 54.9178 455.237 54.9391C455.11 54.9603 454.979 54.941 454.863 54.884C454.744 54.8333 454.649 54.7385 454.598 54.6195C454.541 54.5034 454.522 54.3723 454.543 54.2447C454.564 54.117 454.625 53.9992 454.717 53.9077C454.808 53.8163 454.926 53.7557 455.053 53.7345C455.181 53.7133 455.312 53.7325 455.428 53.7895C455.543 53.8457 455.636 53.9388 455.692 54.054V54.054Z" fill="white"/>
</g>
<g style="mix-blend-mode:color-dodge" opacity="0.28">
<path d="M412.01 73.528C412.067 73.6441 412.086 73.7752 412.065 73.9028C412.044 74.0305 411.983 74.1483 411.892 74.2398C411.8 74.3313 411.682 74.3918 411.555 74.413C411.427 74.4343 411.296 74.415 411.18 74.358C411.063 74.305 410.969 74.211 410.916 74.0935C410.859 73.9774 410.839 73.8463 410.861 73.7187C410.882 73.591 410.942 73.4732 411.034 73.3817C411.125 73.2903 411.243 73.2297 411.371 73.2085C411.498 73.1873 411.629 73.2065 411.745 73.2635C411.863 73.3165 411.957 73.4106 412.01 73.528Z" fill="white"/>
</g>
<g style="mix-blend-mode:color-dodge" opacity="0.28">
<path d="M337.3 55.9876C337.36 56.1034 337.381 56.2354 337.361 56.3643C337.341 56.4932 337.28 56.6122 337.187 56.7039C337.095 56.7957 336.975 56.8553 336.846 56.8741C336.717 56.893 336.585 56.87 336.47 56.8086C336.356 56.7581 336.265 56.667 336.215 56.5532C336.153 56.4381 336.13 56.3063 336.149 56.1772C336.168 56.0481 336.228 55.9284 336.319 55.8357C336.411 55.7429 336.53 55.682 336.659 55.6617C336.788 55.6415 336.92 55.663 337.035 55.7231C337.095 55.747 337.149 55.7827 337.195 55.8282C337.24 55.8737 337.276 55.9279 337.3 55.9876V55.9876Z" fill="white"/>
</g>
<g style="mix-blend-mode:color-dodge" opacity="0.28">
<path d="M285.512 44.7778C285.572 44.8935 285.593 45.0255 285.573 45.1544C285.553 45.2833 285.492 45.4023 285.399 45.494C285.306 45.5858 285.187 45.6454 285.058 45.6643C284.929 45.6831 284.797 45.6601 284.682 45.5987C284.567 45.546 284.474 45.4559 284.417 45.3433C284.36 45.2271 284.341 45.0961 284.362 44.9684C284.384 44.8408 284.444 44.723 284.536 44.6315C284.627 44.54 284.745 44.4794 284.872 44.4582C285 44.437 285.131 44.4562 285.247 44.5132C285.366 44.564 285.461 44.6588 285.512 44.7778V44.7778Z" fill="white"/>
</g>
<g style="mix-blend-mode:color-dodge" opacity="0.28">
<path d="M259.535 43.975C259.596 44.0908 259.617 44.2227 259.597 44.3516C259.577 44.4805 259.516 44.5995 259.423 44.6913C259.33 44.783 259.211 44.8427 259.081 44.8615C258.952 44.8803 258.821 44.8573 258.706 44.7959C258.587 44.7489 258.492 44.6572 258.441 44.5405C258.378 44.4245 258.353 44.291 258.372 44.1599C258.39 44.0288 258.451 43.9074 258.545 43.8138C258.638 43.7202 258.759 43.6595 258.891 43.6408C259.022 43.6222 259.155 43.6467 259.271 43.7105C259.388 43.7635 259.482 43.8575 259.535 43.975V43.975Z" fill="white"/>
</g>
<g style="mix-blend-mode:color-dodge" opacity="0.28">
<path d="M218.005 65.3189C218.061 65.435 218.081 65.5661 218.06 65.6937C218.038 65.8214 217.978 65.9392 217.886 66.0307C217.795 66.1222 217.677 66.1827 217.55 66.2039C217.422 66.2252 217.291 66.2059 217.175 66.1489C217.057 66.0959 216.963 66.0019 216.91 65.8844C216.853 65.7683 216.834 65.6372 216.855 65.5096C216.877 65.3819 216.937 65.2641 217.029 65.1726C217.12 65.0811 217.238 65.0206 217.365 64.9994C217.493 64.9782 217.624 64.9974 217.74 65.0544C217.855 65.1106 217.948 65.2037 218.005 65.3189V65.3189Z" fill="white"/>
</g>
<g style="mix-blend-mode:color-dodge" opacity="0.28">
<path d="M248.084 102.953C248.145 103.068 248.168 103.2 248.149 103.329C248.13 103.458 248.071 103.578 247.979 103.671C247.887 103.763 247.768 103.824 247.64 103.845C247.511 103.865 247.379 103.843 247.263 103.783C247.146 103.73 247.052 103.636 246.999 103.519C246.935 103.403 246.91 103.269 246.929 103.138C246.948 103.007 247.008 102.886 247.102 102.792C247.195 102.698 247.317 102.638 247.448 102.619C247.579 102.6 247.712 102.625 247.828 102.689C247.945 102.74 248.037 102.835 248.084 102.953V102.953Z" fill="white"/>
</g>
<g style="mix-blend-mode:color-dodge" opacity="0.28">
<path d="M243.534 107.477C243.591 107.594 243.61 107.725 243.589 107.852C243.568 107.98 243.507 108.098 243.416 108.189C243.324 108.281 243.207 108.341 243.079 108.363C242.951 108.384 242.82 108.364 242.704 108.307C242.589 108.251 242.496 108.158 242.44 108.043C242.383 107.927 242.364 107.796 242.385 107.668C242.406 107.54 242.467 107.423 242.558 107.331C242.65 107.24 242.767 107.179 242.895 107.158C243.022 107.137 243.153 107.156 243.27 107.213C243.388 107.264 243.483 107.358 243.534 107.477V107.477Z" fill="white"/>
</g>
<g style="mix-blend-mode:color-dodge" opacity="0.28">
<path d="M157.81 104.166C157.867 104.282 157.886 104.414 157.865 104.541C157.844 104.669 157.783 104.787 157.692 104.878C157.6 104.97 157.482 105.03 157.355 105.051C157.227 105.073 157.096 105.053 156.98 104.996C156.865 104.94 156.772 104.847 156.716 104.732C156.659 104.616 156.639 104.485 156.661 104.357C156.682 104.229 156.742 104.112 156.834 104.02C156.925 103.929 157.043 103.868 157.171 103.847C157.298 103.826 157.429 103.845 157.545 103.902C157.661 103.958 157.754 104.051 157.81 104.166V104.166Z" fill="white"/>
</g>
<g style="mix-blend-mode:color-dodge" opacity="0.28">
<path d="M137.359 113.917C137.42 114.032 137.443 114.164 137.425 114.293C137.406 114.422 137.346 114.542 137.254 114.635C137.163 114.727 137.044 114.788 136.915 114.809C136.786 114.829 136.654 114.807 136.538 114.747C136.419 114.696 136.325 114.602 136.274 114.483C136.217 114.366 136.198 114.235 136.219 114.108C136.24 113.98 136.301 113.862 136.392 113.771C136.484 113.679 136.601 113.619 136.729 113.597C136.857 113.576 136.988 113.596 137.104 113.653C137.216 113.709 137.306 113.802 137.359 113.917Z" fill="white"/>
</g>
<g style="mix-blend-mode:color-dodge" opacity="0.28">
<path d="M211.166 105.279C211.228 105.394 211.251 105.526 211.232 105.655C211.213 105.784 211.153 105.904 211.062 105.997C210.97 106.089 210.851 106.15 210.722 106.171C210.593 106.191 210.461 106.169 210.346 106.109C210.228 106.056 210.134 105.962 210.081 105.845C210.024 105.729 210.005 105.598 210.026 105.47C210.048 105.342 210.108 105.224 210.2 105.133C210.291 105.041 210.409 104.981 210.536 104.96C210.664 104.938 210.795 104.958 210.911 105.015C211.025 105.069 211.116 105.163 211.166 105.279V105.279Z" fill="white"/>
</g>
<g style="mix-blend-mode:color-dodge" opacity="0.28">
<path d="M275.181 101.923C275.238 102.039 275.257 102.17 275.236 102.297C275.215 102.425 275.155 102.543 275.063 102.634C274.972 102.726 274.854 102.786 274.726 102.808C274.599 102.829 274.468 102.81 274.352 102.753C274.236 102.696 274.143 102.603 274.087 102.488C274.03 102.372 274.011 102.241 274.032 102.113C274.053 101.986 274.114 101.868 274.205 101.776C274.297 101.685 274.415 101.624 274.542 101.603C274.67 101.582 274.801 101.601 274.917 101.658C275.034 101.711 275.128 101.805 275.181 101.923V101.923Z" fill="white"/>
</g>
<g style="mix-blend-mode:color-dodge" opacity="0.28">
<path d="M71.1558 68.7028C71.2128 68.819 71.2321 68.95 71.2109 69.0777C71.1897 69.2053 71.1291 69.3231 71.0376 69.4146C70.9462 69.5061 70.8284 69.5667 70.7008 69.5879C70.5732 69.6091 70.4422 69.5898 70.3261 69.5328C70.211 69.4766 70.1178 69.3835 70.0617 69.2683C70.0047 69.1522 69.9855 69.0211 70.0067 68.8935C70.0279 68.7658 70.0885 68.648 70.1799 68.5565C70.2714 68.4651 70.3891 68.4045 70.5167 68.3833C70.6443 68.3621 70.7753 68.3813 70.8914 68.4383C71.0066 68.4945 71.0996 68.5876 71.1558 68.7028V68.7028Z" fill="white"/>
</g>
<g style="mix-blend-mode:color-dodge" opacity="0.28">
<path d="M100.196 83.3607C100.252 83.4768 100.272 83.6079 100.25 83.7355C100.229 83.8632 100.169 83.981 100.077 84.0725C99.9858 84.1639 99.868 84.2245 99.7405 84.2457C99.6129 84.2669 99.4819 84.2477 99.3658 84.1907C99.2513 84.1366 99.1606 84.0425 99.1105 83.9262C99.0491 83.8111 99.0261 83.6794 99.045 83.5503C99.0638 83.4212 99.1234 83.3015 99.2151 83.2087C99.3068 83.116 99.4258 83.055 99.5546 83.0348C99.6834 83.0145 99.8153 83.036 99.9311 83.0962C100.05 83.1469 100.145 83.2417 100.196 83.3607Z" fill="white"/>
</g>
<g style="mix-blend-mode:color-dodge" opacity="0.28">
<path d="M53.4959 121.62C53.738 121.378 53.7524 121 53.5281 120.775C53.3038 120.551 52.9256 120.565 52.6835 120.808C52.4414 121.05 52.427 121.428 52.6513 121.653C52.8756 121.877 53.2537 121.863 53.4959 121.62Z" fill="white"/>
</g>
<g style="mix-blend-mode:color-dodge" opacity="0.28">
<path d="M33.5 75.0787C33.557 75.1948 33.5762 75.3259 33.555 75.4535C33.5338 75.5812 33.4733 75.699 33.3818 75.7904C33.2904 75.8819 33.1726 75.9425 33.045 75.9637C32.9174 75.9849 32.7864 75.9657 32.6703 75.9087C32.5529 75.8557 32.4589 75.7616 32.4059 75.6442C32.3489 75.528 32.3297 75.397 32.3509 75.2693C32.3721 75.1417 32.4327 75.0239 32.5241 74.9324C32.6156 74.8409 32.7333 74.7803 32.8609 74.7591C32.9885 74.7379 33.1195 74.7572 33.2356 74.8141C33.3508 74.8703 33.4438 74.9634 33.5 75.0787V75.0787Z" fill="white"/>
</g>
<g style="mix-blend-mode:color-dodge" opacity="0.28">
<path d="M61.5367 115.878C61.5937 115.994 61.6129 116.125 61.5917 116.253C61.5705 116.381 61.51 116.498 61.4185 116.59C61.327 116.681 61.2093 116.742 61.0817 116.763C60.9541 116.784 60.8231 116.765 60.707 116.708C60.588 116.657 60.4933 116.563 60.4425 116.444C60.389 116.301 60.3896 116.145 60.4441 116.003C60.4986 115.861 60.6033 115.744 60.7382 115.674C60.8732 115.604 61.0291 115.587 61.1763 115.624C61.3234 115.662 61.4517 115.752 61.5367 115.878V115.878Z" fill="white"/>
</g>
<g style="mix-blend-mode:color-dodge" opacity="0.28">
<path d="M78.0761 114.82C78.1331 114.936 78.1523 115.067 78.1311 115.195C78.1099 115.322 78.0493 115.44 77.9579 115.532C77.8664 115.623 77.7487 115.684 77.6211 115.705C77.4935 115.726 77.3625 115.707 77.2463 115.65C77.1274 115.599 77.0327 115.504 76.9819 115.386C76.925 115.269 76.9058 115.138 76.927 115.011C76.9482 114.883 77.0087 114.765 77.1002 114.674C77.1916 114.582 77.3094 114.522 77.4369 114.5C77.5645 114.479 77.6955 114.498 77.8116 114.555C77.9268 114.612 78.0199 114.705 78.0761 114.82V114.82Z" fill="white"/>
</g>
<g style="mix-blend-mode:color-dodge" opacity="0.28">
<path d="M21.2366 61.5061C21.2936 61.6223 21.3129 61.7534 21.2917 61.881C21.2705 62.0086 21.2099 62.1264 21.1185 62.2179C21.027 62.3094 20.9092 62.37 20.7817 62.3912C20.6541 62.4124 20.5231 62.3932 20.407 62.3362C20.2887 62.2892 20.1936 62.1974 20.1426 62.0808C20.0788 61.9648 20.0544 61.8312 20.073 61.7002C20.0916 61.5691 20.1523 61.4477 20.2458 61.354C20.3394 61.2604 20.4608 61.1998 20.5918 61.1811C20.7228 61.1625 20.8563 61.1869 20.9723 61.2508C21.0868 61.3035 21.18 61.3935 21.2366 61.5061Z" fill="white"/>
</g>
<g style="mix-blend-mode:color-dodge" opacity="0.28">
<path d="M24.2912 76.9941C24.3481 77.1102 24.3674 77.2413 24.3462 77.3689C24.325 77.4966 24.2644 77.6144 24.173 77.7058C24.0815 77.7973 23.9638 77.8579 23.8362 77.8791C23.7086 77.9003 23.5776 77.8811 23.4615 77.8241C23.3463 77.7679 23.2532 77.6748 23.1971 77.5596C23.1401 77.4434 23.1209 77.3124 23.142 77.1847C23.1632 77.0571 23.2238 76.9393 23.3153 76.8478C23.4067 76.7563 23.5245 76.6957 23.6521 76.6745C23.7796 76.6533 23.9106 76.6726 24.0267 76.7295C24.1441 76.7826 24.2382 76.8766 24.2912 76.9941V76.9941Z" fill="white"/>
</g>
<g style="mix-blend-mode:color-dodge" opacity="0.28">
<path d="M9.49324 118.031C9.55021 118.147 9.56942 118.278 9.54822 118.406C9.52703 118.533 9.46646 118.651 9.37501 118.742C9.28356 118.834 9.16579 118.895 9.03821 118.916C8.91063 118.937 8.77962 118.918 8.66351 118.861C8.54611 118.808 8.45208 118.714 8.39909 118.596C8.34212 118.48 8.32288 118.349 8.34408 118.221C8.36527 118.094 8.42584 117.976 8.51729 117.884C8.60874 117.793 8.72651 117.732 8.85409 117.711C8.98167 117.69 9.1127 117.709 9.22881 117.766C9.34398 117.822 9.43706 117.915 9.49324 118.031V118.031Z" fill="white"/>
</g>
<g style="mix-blend-mode:color-dodge" opacity="0.28">
<path d="M32.9529 42.552C33.0212 42.6834 33.0401 42.8349 33.0064 42.9792C32.9727 43.1234 32.8885 43.2507 32.7691 43.3383C32.6497 43.4258 32.5029 43.4677 32.3553 43.4563C32.2077 43.445 32.069 43.3812 31.9643 43.2765C31.8596 43.1718 31.7959 43.033 31.7845 42.8854C31.7732 42.7377 31.8151 42.5908 31.9026 42.4714C31.99 42.3519 32.1174 42.2677 32.2615 42.2339C32.4057 42.2002 32.5571 42.2192 32.6885 42.2875C32.8059 42.3405 32.8999 42.4346 32.9529 42.552V42.552Z" fill="white"/>
</g>
<g style="mix-blend-mode:color-dodge" opacity="0.28">
<path d="M55.1087 64.9631C55.1657 65.0792 55.1849 65.2103 55.1637 65.3379C55.1425 65.4655 55.0819 65.5833 54.9905 65.6748C54.899 65.7663 54.7813 65.8269 54.6537 65.8481C54.5261 65.8693 54.3951 65.8501 54.279 65.7931C54.1638 65.7369 54.0707 65.6438 54.0146 65.5286C53.9576 65.4124 53.9384 65.2813 53.9596 65.1537C53.9808 65.0261 54.0413 64.9083 54.1328 64.8168C54.2242 64.7253 54.342 64.6647 54.4696 64.6435C54.5972 64.6223 54.7282 64.6415 54.8443 64.6985C54.9595 64.7547 55.0525 64.8478 55.1087 64.9631V64.9631Z" fill="white"/>
</g>
<g style="mix-blend-mode:color-dodge" opacity="0.28">
<path d="M154.135 43.3639C154.204 43.4953 154.223 43.6468 154.189 43.791C154.155 43.9352 154.071 44.0626 153.952 44.1501C153.832 44.2377 153.685 44.2796 153.538 44.2682C153.39 44.2569 153.251 44.1931 153.147 44.0884C153.042 43.9836 152.978 43.8449 152.967 43.6972C152.956 43.5496 152.998 43.4027 153.085 43.2833C153.172 43.1638 153.3 43.0796 153.444 43.0458C153.588 43.0121 153.74 43.0311 153.871 43.0994C153.988 43.1524 154.082 43.2464 154.135 43.3639V43.3639Z" fill="white"/>
</g>
<g style="mix-blend-mode:color-dodge" opacity="0.28">
<path d="M147.361 58.2864C147.418 58.4025 147.437 58.5336 147.416 58.6612C147.395 58.7888 147.334 58.9067 147.243 58.9981C147.151 59.0896 147.034 59.1502 146.906 59.1714C146.778 59.1926 146.647 59.1734 146.531 59.1164C146.417 59.0623 146.326 58.9682 146.276 58.8519C146.215 58.7368 146.192 58.605 146.21 58.4759C146.229 58.3468 146.289 58.2272 146.38 58.1344C146.472 58.0416 146.591 57.9807 146.72 57.9604C146.849 57.9402 146.981 57.9617 147.097 58.0218C147.215 58.0726 147.31 58.1674 147.361 58.2864V58.2864Z" fill="white"/>
</g>
<g style="mix-blend-mode:color-dodge" opacity="0.28">
<path d="M166.098 103.665C166.155 103.781 166.174 103.912 166.153 104.04C166.132 104.167 166.071 104.285 165.98 104.376C165.888 104.468 165.77 104.529 165.643 104.55C165.515 104.571 165.384 104.552 165.268 104.495C165.155 104.438 165.065 104.345 165.013 104.23C164.956 104.114 164.937 103.983 164.958 103.855C164.979 103.728 165.039 103.61 165.131 103.518C165.222 103.427 165.34 103.366 165.468 103.345C165.595 103.324 165.726 103.343 165.842 103.4C165.957 103.454 166.048 103.548 166.098 103.665V103.665Z" fill="white"/>
</g>
<g style="mix-blend-mode:color-dodge" opacity="0.28">
<path d="M147.297 85.559C147.354 85.6752 147.373 85.8062 147.352 85.9339C147.331 86.0615 147.27 86.1793 147.179 86.2708C147.087 86.3623 146.97 86.4229 146.842 86.4441C146.715 86.4653 146.584 86.446 146.467 86.389C146.35 86.336 146.256 86.242 146.203 86.1245C146.146 86.0084 146.127 85.8773 146.148 85.7497C146.169 85.622 146.23 85.5042 146.321 85.4127C146.413 85.3213 146.53 85.2607 146.658 85.2395C146.786 85.2183 146.917 85.2375 147.033 85.2945C147.148 85.3507 147.241 85.4438 147.297 85.559V85.559Z" fill="white"/>
</g>
<g style="mix-blend-mode:color-dodge" opacity="0.28">
<path d="M167.055 67.8454C167.112 67.9615 167.131 68.0926 167.11 68.2202C167.089 68.3479 167.028 68.4657 166.937 68.5572C166.845 68.6486 166.728 68.7092 166.6 68.7304C166.473 68.7516 166.342 68.7324 166.225 68.6754C166.11 68.6192 166.017 68.5261 165.961 68.4109C165.904 68.2947 165.885 68.1637 165.906 68.0361C165.927 67.9084 165.988 67.7906 166.079 67.6991C166.171 67.6076 166.288 67.547 166.416 67.5258C166.544 67.5046 166.675 67.5239 166.791 67.5809C166.906 67.6371 166.999 67.7302 167.055 67.8454V67.8454Z" fill="white"/>
</g>
<g style="mix-blend-mode:color-dodge" opacity="0.28">
<path d="M263.119 46.2644C263.176 46.3805 263.195 46.5116 263.174 46.6392C263.153 46.7669 263.092 46.8847 263 46.9762C262.909 47.0677 262.791 47.1282 262.664 47.1494C262.536 47.1706 262.405 47.1514 262.289 47.0944C262.172 47.0414 262.078 46.9473 262.025 46.8299C261.971 46.6877 261.972 46.5308 262.026 46.3889C262.081 46.2471 262.185 46.1302 262.32 46.0604C262.455 45.9907 262.611 45.9729 262.758 46.0105C262.905 46.0481 263.034 46.1384 263.119 46.2644V46.2644Z" fill="white"/>
</g>
<g style="mix-blend-mode:color-dodge" opacity="0.28">
<path d="M214.394 73.0902C214.451 73.2063 214.47 73.3374 214.449 73.465C214.428 73.5927 214.367 73.7105 214.276 73.8019C214.184 73.8934 214.066 73.954 213.939 73.9752C213.811 73.9964 213.68 73.9772 213.564 73.9202C213.447 73.8672 213.353 73.7731 213.3 73.6557C213.251 73.5831 213.218 73.501 213.203 73.4147C213.188 73.3285 213.191 73.24 213.213 73.1551C213.235 73.0703 213.274 72.991 213.328 72.9225C213.383 72.854 213.451 72.7978 213.529 72.7576C213.607 72.7174 213.692 72.6941 213.78 72.6893C213.867 72.6845 213.954 72.6982 214.036 72.7297C214.118 72.7611 214.192 72.8094 214.254 72.8716C214.315 72.9337 214.363 73.0082 214.394 73.0902V73.0902Z" fill="white"/>
</g>
<g style="mix-blend-mode:color-dodge" opacity="0.28">
<path d="M308.169 89.3535C308.226 89.4696 308.245 89.6007 308.224 89.7283C308.203 89.856 308.142 89.9738 308.051 90.0652C307.959 90.1567 307.842 90.2173 307.714 90.2385C307.586 90.2597 307.455 90.2405 307.339 90.1835C307.222 90.1305 307.128 90.0364 307.075 89.919C307.026 89.8464 306.993 89.7643 306.978 89.678C306.963 89.5918 306.966 89.5033 306.988 89.4184C307.01 89.3336 307.049 89.2543 307.104 89.1858C307.158 89.1173 307.226 89.0611 307.304 89.0209C307.382 88.9807 307.467 88.9574 307.555 88.9526C307.642 88.9478 307.729 88.9615 307.811 88.993C307.893 89.0244 307.967 89.0728 308.029 89.1349C308.09 89.197 308.138 89.2715 308.169 89.3535V89.3535Z" fill="white"/>
</g>
<g style="mix-blend-mode:color-dodge" opacity="0.28">
<path d="M386.198 112.138C386.255 112.255 386.274 112.386 386.253 112.513C386.231 112.641 386.171 112.759 386.08 112.85C385.988 112.942 385.87 113.002 385.743 113.024C385.615 113.045 385.484 113.025 385.368 112.969C385.251 112.915 385.157 112.821 385.104 112.704C385.047 112.588 385.027 112.457 385.049 112.329C385.07 112.202 385.13 112.084 385.222 111.992C385.313 111.901 385.431 111.84 385.559 111.819C385.686 111.798 385.817 111.817 385.933 111.874C386.048 111.93 386.142 112.023 386.198 112.138V112.138Z" fill="white"/>
</g>
<g style="mix-blend-mode:color-dodge" opacity="0.28">
<path d="M334.966 45.0057C335.023 45.1219 335.042 45.2529 335.021 45.3806C335 45.5082 334.939 45.626 334.848 45.7175C334.756 45.809 334.638 45.8696 334.511 45.8908C334.383 45.912 334.252 45.8927 334.136 45.8358C334.022 45.7816 333.931 45.6876 333.881 45.5712C333.819 45.4561 333.796 45.3244 333.815 45.1953C333.834 45.0662 333.894 44.9465 333.985 44.8538C334.077 44.761 334.196 44.7 334.325 44.6798C334.454 44.6595 334.586 44.681 334.701 44.7412C334.819 44.7942 334.913 44.8883 334.966 45.0057V45.0057Z" fill="white"/>
</g>
<g style="mix-blend-mode:color-dodge" opacity="0.28">
<path d="M375.001 88.8882C375.07 89.0196 375.089 89.1711 375.055 89.3153C375.021 89.4595 374.937 89.5869 374.817 89.6744C374.698 89.762 374.551 89.8038 374.404 89.7925C374.256 89.7812 374.117 89.7174 374.013 89.6127C373.908 89.5079 373.844 89.3692 373.833 89.2215C373.822 89.0739 373.863 88.927 373.951 88.8075C374.038 88.6881 374.166 88.6039 374.31 88.5701C374.454 88.5364 374.606 88.5554 374.737 88.6237C374.854 88.6767 374.948 88.7707 375.001 88.8882Z" fill="white"/>
</g>
<g style="mix-blend-mode:color-dodge" opacity="0.28">
<path d="M365.136 100.664C365.193 100.78 365.212 100.911 365.191 101.039C365.17 101.166 365.109 101.284 365.018 101.376C364.926 101.467 364.809 101.528 364.681 101.549C364.553 101.57 364.422 101.551 364.306 101.494C364.191 101.438 364.098 101.344 364.042 101.229C363.985 101.113 363.966 100.982 363.987 100.854C364.008 100.727 364.069 100.609 364.16 100.517C364.252 100.426 364.369 100.365 364.497 100.344C364.624 100.323 364.755 100.342 364.872 100.399C364.987 100.455 365.08 100.549 365.136 100.664V100.664Z" fill="white"/>
</g>
<g style="mix-blend-mode:color-dodge" opacity="0.28">
<path d="M350.794 115.34C350.854 115.456 350.876 115.588 350.855 115.717C350.835 115.845 350.774 115.964 350.682 116.056C350.589 116.148 350.469 116.208 350.34 116.226C350.211 116.245 350.079 116.222 349.964 116.161C349.85 116.108 349.757 116.018 349.7 115.905C349.643 115.789 349.624 115.658 349.645 115.531C349.666 115.403 349.727 115.285 349.818 115.194C349.91 115.102 350.027 115.042 350.155 115.02C350.282 114.999 350.414 115.018 350.53 115.075C350.589 115.099 350.644 115.135 350.689 115.18C350.734 115.226 350.77 115.28 350.794 115.34V115.34Z" fill="white"/>
</g>
<g style="mix-blend-mode:color-dodge" opacity="0.28">
<path d="M338.339 78.0795C338.407 78.2109 338.426 78.3624 338.393 78.5066C338.359 78.6508 338.275 78.7782 338.155 78.8657C338.036 78.9532 337.889 78.9951 337.742 78.9838C337.594 78.9725 337.455 78.9087 337.351 78.8039C337.246 78.6992 337.182 78.5605 337.171 78.4128C337.159 78.2652 337.201 78.1183 337.289 77.9988C337.376 77.8794 337.504 77.7951 337.648 77.7614C337.792 77.7277 337.943 77.7467 338.075 77.8149C338.192 77.868 338.286 77.962 338.339 78.0795V78.0795Z" fill="white"/>
</g>
<g style="mix-blend-mode:color-dodge" opacity="0.28">
<path d="M449.055 50.7886C449.112 50.9048 449.131 51.0358 449.11 51.1635C449.089 51.2911 449.028 51.4089 448.937 51.5004C448.845 51.5919 448.728 51.6525 448.6 51.6737C448.472 51.6949 448.341 51.6757 448.225 51.6187C448.111 51.5645 448.02 51.4705 447.97 51.3541C447.913 51.238 447.894 51.1069 447.915 50.9793C447.936 50.8517 447.997 50.7339 448.088 50.6424C448.18 50.5509 448.297 50.4903 448.425 50.4691C448.552 50.4479 448.683 50.4671 448.8 50.5241C448.914 50.5782 449.005 50.6723 449.055 50.7886V50.7886Z" fill="white"/>
</g>
<g style="mix-blend-mode:color-dodge" opacity="0.28">
<path d="M446.192 54.9023C446.249 55.0185 446.268 55.1496 446.247 55.2772C446.226 55.4048 446.165 55.5226 446.074 55.6141C445.982 55.7056 445.865 55.7662 445.737 55.7874C445.609 55.8086 445.478 55.7894 445.362 55.7324C445.243 55.6816 445.149 55.5868 445.098 55.4679C445.038 55.3521 445.016 55.2201 445.036 55.0912C445.057 54.9623 445.118 54.8433 445.21 54.7516C445.303 54.6598 445.423 54.6002 445.552 54.5813C445.681 54.5625 445.813 54.5855 445.928 54.6469C446.042 54.6996 446.135 54.7897 446.192 54.9023V54.9023Z" fill="white"/>
</g>
<g style="mix-blend-mode:color-dodge" opacity="0.28">
<path d="M540.614 92.6189C540.671 92.735 540.691 92.8661 540.669 92.9937C540.648 93.1214 540.588 93.2392 540.496 93.3307C540.405 93.4221 540.287 93.4827 540.159 93.5039C540.032 93.5251 539.901 93.5059 539.785 93.4489C539.666 93.3981 539.571 93.3034 539.52 93.1844C539.46 93.0686 539.439 92.9366 539.459 92.8078C539.479 92.6789 539.54 92.5599 539.633 92.4681C539.726 92.3764 539.845 92.3167 539.974 92.2979C540.103 92.2791 540.235 92.3021 540.35 92.3635C540.465 92.4162 540.558 92.5062 540.614 92.6189Z" fill="white"/>
</g>
<g style="mix-blend-mode:color-dodge" opacity="0.28">
<path d="M488.853 113.707C488.91 113.823 488.93 113.954 488.908 114.082C488.887 114.21 488.827 114.328 488.735 114.419C488.644 114.51 488.526 114.571 488.398 114.592C488.271 114.613 488.14 114.594 488.024 114.537C487.908 114.481 487.815 114.388 487.759 114.273C487.702 114.157 487.683 114.026 487.704 113.898C487.725 113.77 487.786 113.652 487.877 113.561C487.969 113.469 488.087 113.409 488.214 113.388C488.342 113.366 488.473 113.386 488.589 113.443C488.706 113.496 488.8 113.59 488.853 113.707V113.707Z" fill="white"/>
</g>
<g style="mix-blend-mode:color-dodge" opacity="0.28">
<path d="M545.784 104.522C545.845 104.637 545.868 104.769 545.85 104.898C545.831 105.027 545.771 105.147 545.679 105.24C545.588 105.332 545.469 105.393 545.34 105.414C545.211 105.434 545.079 105.412 544.963 105.352C544.845 105.301 544.75 105.207 544.699 105.088C544.638 104.972 544.615 104.841 544.634 104.712C544.652 104.583 544.712 104.463 544.804 104.37C544.895 104.277 545.014 104.216 545.143 104.196C545.272 104.176 545.404 104.197 545.52 104.258C545.639 104.308 545.733 104.403 545.784 104.522V104.522Z" fill="white"/>
</g>
<g style="mix-blend-mode:color-dodge" opacity="0.28">
<path d="M441.369 116.243C441.426 116.359 441.445 116.49 441.424 116.618C441.403 116.745 441.342 116.863 441.25 116.955C441.159 117.046 441.041 117.107 440.914 117.128C440.786 117.149 440.655 117.13 440.539 117.073C440.424 117.017 440.331 116.924 440.275 116.808C440.218 116.692 440.198 116.561 440.22 116.434C440.241 116.306 440.301 116.188 440.393 116.097C440.484 116.005 440.602 115.945 440.73 115.923C440.857 115.902 440.988 115.921 441.104 115.978C441.219 116.035 441.313 116.128 441.369 116.243V116.243Z" fill="white"/>
</g>
<g style="mix-blend-mode:color-dodge" opacity="0.28">
<path d="M440.074 87.4289C440.131 87.545 440.15 87.6761 440.129 87.8037C440.108 87.9314 440.047 88.0492 439.956 88.1407C439.864 88.2321 439.747 88.2927 439.619 88.3139C439.491 88.3351 439.36 88.3159 439.244 88.2589C439.129 88.2027 439.036 88.1096 438.98 87.9944C438.923 87.8782 438.904 87.7472 438.925 87.6195C438.946 87.4919 439.007 87.3741 439.098 87.2826C439.19 87.1911 439.307 87.1305 439.435 87.1093C439.562 87.0881 439.693 87.1074 439.81 87.1644C439.927 87.2174 440.021 87.3114 440.074 87.4289V87.4289Z" fill="white"/>
</g>
<g style="mix-blend-mode:color-dodge" opacity="0.28">
<path d="M504.171 114.264C504.228 114.38 504.247 114.511 504.226 114.638C504.205 114.766 504.144 114.884 504.053 114.975C503.961 115.067 503.844 115.127 503.716 115.149C503.588 115.17 503.457 115.151 503.341 115.094C503.226 115.037 503.133 114.944 503.077 114.829C503.02 114.713 503.001 114.582 503.022 114.454C503.043 114.327 503.104 114.209 503.195 114.117C503.287 114.026 503.404 113.965 503.532 113.944C503.66 113.923 503.791 113.942 503.907 113.999C504.022 114.055 504.115 114.148 504.171 114.264V114.264Z" fill="white"/>
</g>
<g style="mix-blend-mode:color-dodge" opacity="0.28">
<path d="M524.266 73.1083C524.323 73.2245 524.343 73.3555 524.321 73.4832C524.3 73.6108 524.24 73.7286 524.148 73.8201C524.057 73.9116 523.939 73.9722 523.811 73.9934C523.684 74.0146 523.553 73.9953 523.437 73.9384C523.319 73.8853 523.225 73.7913 523.172 73.6738C523.115 73.5577 523.096 73.4266 523.117 73.299C523.138 73.1714 523.199 73.0535 523.29 72.9621C523.382 72.8706 523.5 72.81 523.627 72.7888C523.755 72.7676 523.886 72.7868 524.002 72.8438C524.117 72.9 524.21 72.9931 524.266 73.1083V73.1083Z" fill="white"/>
</g>
</g>
<path style="mix-blend-mode:color-dodge" d="M279.157 105.963C279.504 105.963 279.786 100.993 279.786 94.8627C279.786 88.732 279.504 83.7621 279.157 83.7621C278.809 83.7621 278.528 88.732 278.528 94.8627C278.528 100.993 278.809 105.963 279.157 105.963Z" fill="url(#paint2_radial_7_273)"/>
<path style="mix-blend-mode:color-dodge" d="M268.061 94.8627C268.061 94.516 273.03 94.2333 279.157 94.2333C285.284 94.2333 290.244 94.516 290.244 94.8627C290.244 95.2093 285.284 95.492 279.157 95.492C273.03 95.492 268.061 95.2093 268.061 94.8627Z" fill="url(#paint3_radial_7_273)"/>
</g>
</g>
<path d="M241.669 164H239.179V144.796H232.396V142.584H248.451V144.796H241.669V164ZM270.277 153.263C270.277 156.69 269.408 159.386 267.67 161.349C265.941 163.312 263.534 164.293 260.448 164.293C257.294 164.293 254.857 163.331 253.139 161.407C251.43 159.474 250.575 156.749 250.575 153.233C250.575 149.747 251.435 147.047 253.153 145.133C254.872 143.209 257.313 142.247 260.478 142.247C263.554 142.247 265.956 143.224 267.685 145.177C269.413 147.13 270.277 149.825 270.277 153.263ZM253.212 153.263C253.212 156.163 253.827 158.365 255.058 159.869C256.298 161.363 258.095 162.11 260.448 162.11C262.821 162.11 264.613 161.363 265.824 159.869C267.035 158.375 267.641 156.173 267.641 153.263C267.641 150.382 267.035 148.199 265.824 146.715C264.623 145.221 262.841 144.474 260.478 144.474C258.104 144.474 256.298 145.226 255.058 146.729C253.827 148.224 253.212 150.401 253.212 153.263ZM290.536 164H287.606L279.799 153.614L277.558 155.606V164H275.067V142.584H277.558V153.204L287.27 142.584H290.214L281.601 151.886L290.536 164ZM305.434 164H293.495V142.584H305.434V144.796H295.985V151.695H304.862V153.893H295.985V161.773H305.434V164ZM326.923 164H324.081L312.377 146.026H312.26C312.416 148.136 312.494 150.069 312.494 151.827V164H310.194V142.584H313.007L324.682 160.484H324.799C324.779 160.221 324.735 159.376 324.667 157.95C324.599 156.515 324.574 155.489 324.594 154.874V142.584H326.923V164Z" fill="#3A9BF4"/>
<defs>
<radialGradient id="paint0_radial_7_273" cx="0" cy="0" r="1" gradientUnits="userSpaceOnUse" gradientTransform="translate(369.102 -178.402) scale(509.266 433.049)">
<stop stop-color="#00D1FF"/>
<stop offset="0.27" stop-color="#0073A7"/>
<stop offset="0.36" stop-color="#04628F"/>
<stop offset="0.57" stop-color="#0C4161"/>
<stop offset="0.75" stop-color="#122A3F"/>
<stop offset="0.9" stop-color="#161B2A"/>
<stop offset="1" stop-color="#171623"/>
</radialGradient>
<radialGradient id="paint1_radial_7_273" cx="0" cy="0" r="1" gradientUnits="userSpaceOnUse" gradientTransform="translate(271.197 527.226) scale(650.608 442.59)">
<stop stop-color="#3A9BF4"/>
<stop offset="0.383045" stop-color="#3A9BF4" stop-opacity="0.52"/>
<stop offset="1"/>
</radialGradient>
<radialGradient id="paint2_radial_7_273" cx="0" cy="0" r="1" gradientUnits="userSpaceOnUse" gradientTransform="translate(3464.16 -1497.98) rotate(-90) scale(14.2816 13.7593)">
<stop stop-color="white"/>
<stop offset="1"/>
</radialGradient>
<radialGradient id="paint3_radial_7_273" cx="0" cy="0" r="1" gradientUnits="userSpaceOnUse" gradientTransform="translate(-16792.1 74.9792) rotate(180) scale(251.691 0.780426)">
<stop stop-color="white"/>
<stop offset="1"/>
</radialGradient>
<clipPath id="clip0_7_273">
<rect width="682" height="455.152" fill="white" transform="translate(-75 16)"/>
</clipPath>
</defs>
</svg>
